<?xml version="1.0" encoding="UTF-8"?>
<svg xmlns="http://www.w3.org/2000/svg" version="1.1" width="150" height="150" viewBox="0 0 150 150"><rect x="0" y="0" width="150" height="150" fill="#ffffff"/><g transform="scale(7.143)"><g transform="translate(0,0)"><path fill-rule="evenodd" d="M8 0L8 2L9 2L9 0ZM10 0L10 1L11 1L11 2L10 2L10 4L11 4L11 5L9 5L9 4L8 4L8 10L5 10L5 12L4 12L4 13L5 13L5 12L6 12L6 13L8 13L8 14L10 14L10 16L9 16L9 15L8 15L8 16L9 16L9 17L10 17L10 19L9 19L9 18L8 18L8 21L9 21L9 20L11 20L11 21L15 21L15 20L14 20L14 19L15 19L15 18L13 18L13 17L14 17L14 16L12 16L12 15L13 15L13 13L14 13L14 11L15 11L15 9L16 9L16 11L17 11L17 13L16 13L16 15L15 15L15 14L14 14L14 15L15 15L15 17L16 17L16 19L17 19L17 20L16 20L16 21L18 21L18 19L21 19L21 18L20 18L20 17L21 17L21 16L20 16L20 15L21 15L21 14L20 14L20 15L19 15L19 18L18 18L18 19L17 19L17 17L18 17L18 14L17 14L17 13L18 13L18 11L17 11L17 10L19 10L19 9L20 9L20 12L19 12L19 13L21 13L21 8L19 8L19 9L17 9L17 8L13 8L13 6L12 6L12 3L13 3L13 2L12 2L12 0ZM11 2L11 3L12 3L12 2ZM9 6L9 8L11 8L11 10L10 10L10 9L9 9L9 10L8 10L8 11L11 11L11 12L12 12L12 9L13 9L13 8L12 8L12 6L11 6L11 7L10 7L10 6ZM0 8L0 9L2 9L2 10L3 10L3 11L1 11L1 10L0 10L0 12L1 12L1 13L2 13L2 12L3 12L3 11L4 11L4 9L3 9L3 8ZM5 8L5 9L7 9L7 8ZM6 11L6 12L7 12L7 11ZM9 12L9 13L10 13L10 12ZM11 14L11 15L12 15L12 14ZM16 15L16 17L17 17L17 15ZM10 16L10 17L11 17L11 20L12 20L12 16ZM20 20L20 21L21 21L21 20ZM0 0L0 7L7 7L7 0ZM1 1L1 6L6 6L6 1ZM2 2L2 5L5 5L5 2ZM14 0L14 7L21 7L21 0ZM15 1L15 6L20 6L20 1ZM16 2L16 5L19 5L19 2ZM0 14L0 21L7 21L7 14ZM1 15L1 20L6 20L6 15ZM2 16L2 19L5 19L5 16Z" fill="#282828"/></g></g></svg>
