<?xml version="1.0" encoding="UTF-8"?>
<svg xmlns="http://www.w3.org/2000/svg" version="1.1" width="100" height="100" viewBox="0 0 100 100"><rect x="0" y="0" width="100" height="100" fill="#ffffff"/><g transform="scale(4)"><g transform="translate(0,0)"><path fill-rule="evenodd" d="M8 0L8 4L9 4L9 5L8 5L8 7L9 7L9 6L10 6L10 9L11 9L11 8L12 8L12 9L13 9L13 10L14 10L14 8L12 8L12 7L13 7L13 6L14 6L14 7L15 7L15 8L17 8L17 6L16 6L16 7L15 7L15 5L17 5L17 4L16 4L16 2L17 2L17 0L14 0L14 1L16 1L16 2L15 2L15 4L14 4L14 3L13 3L13 1L11 1L11 2L12 2L12 5L13 5L13 6L12 6L12 7L11 7L11 3L10 3L10 2L9 2L9 0ZM0 8L0 11L1 11L1 12L0 12L0 14L2 14L2 15L3 15L3 16L0 16L0 17L3 17L3 16L4 16L4 15L5 15L5 14L3 14L3 13L1 13L1 12L6 12L6 13L7 13L7 14L6 14L6 15L8 15L8 16L6 16L6 17L8 17L8 18L9 18L9 17L8 17L8 16L10 16L10 18L11 18L11 20L9 20L9 19L8 19L8 21L9 21L9 23L8 23L8 25L10 25L10 24L12 24L12 25L13 25L13 23L14 23L14 24L16 24L16 23L19 23L19 24L17 24L17 25L25 25L25 24L24 24L24 22L25 22L25 21L23 21L23 20L25 20L25 19L22 19L22 21L21 21L21 17L23 17L23 18L25 18L25 16L24 16L24 15L22 15L22 14L24 14L24 13L25 13L25 11L23 11L23 10L22 10L22 13L20 13L20 12L21 12L21 11L20 11L20 10L21 10L21 9L25 9L25 8L21 8L21 9L20 9L20 8L19 8L19 9L20 9L20 10L19 10L19 12L17 12L17 13L16 13L16 12L15 12L15 11L18 11L18 10L16 10L16 9L15 9L15 11L14 11L14 12L15 12L15 16L16 16L16 21L17 21L17 22L15 22L15 21L14 21L14 22L13 22L13 23L12 23L12 21L13 21L13 19L14 19L14 20L15 20L15 19L14 19L14 18L15 18L15 17L14 17L14 16L12 16L12 15L14 15L14 13L13 13L13 11L12 11L12 12L11 12L11 13L10 13L10 14L9 14L9 13L8 13L8 12L6 12L6 11L7 11L7 10L8 10L8 9L7 9L7 8L4 8L4 9L3 9L3 10L4 10L4 11L2 11L2 10L1 10L1 9L2 9L2 8ZM4 9L4 10L7 10L7 9ZM9 10L9 12L10 12L10 11L11 11L11 10ZM23 12L23 13L24 13L24 12ZM11 13L11 14L10 14L10 15L11 15L11 14L12 14L12 13ZM17 13L17 14L16 14L16 16L22 16L22 15L20 15L20 13ZM18 14L18 15L19 15L19 14ZM11 16L11 17L12 17L12 16ZM17 17L17 20L20 20L20 17ZM18 18L18 19L19 19L19 18ZM11 20L11 21L10 21L10 22L11 22L11 21L12 21L12 20ZM19 21L19 22L20 22L20 23L21 23L21 24L23 24L23 21L22 21L22 23L21 23L21 21ZM0 0L0 7L7 7L7 0ZM1 1L1 6L6 6L6 1ZM2 2L2 5L5 5L5 2ZM18 0L18 7L25 7L25 0ZM19 1L19 6L24 6L24 1ZM20 2L20 5L23 5L23 2ZM0 18L0 25L7 25L7 18ZM1 19L1 24L6 24L6 19ZM2 20L2 23L5 23L5 20Z" fill="#000000"/></g></g></svg>
