<svg height="512" viewBox="0 0 64 64" width="512"  fill="#808080" xmlns="http://www.w3.org/2000/svg"><g id="Outline"><path d="m35.461 19.616a9.866 9.866 0 0 0 -6.922 0 1 1 0 0 0 .7 1.873 7.847 7.847 0 0 1 5.518 0 1 1 0 0 0 .7-1.873z"/><path d="m38.44 15.565a14.007 14.007 0 0 0 -12.88 0 1 1 0 1 0 .92 1.776 12 12 0 0 1 11.04 0 1 1 0 1 0 .92-1.776z"/><path d="m22.691 11.587a1 1 0 0 0 1.038 1.713 15.892 15.892 0 0 1 16.542 0 1 1 0 0 0 1.038-1.711 17.893 17.893 0 0 0 -18.618-.002z"/><path d="m61.435 16.09-29-14a1 1 0 0 0 -.87 0l-29 14a1 1 0 0 0 -.565.9v44a1 1 0 0 0 1 1h6a1 1 0 0 0 1-1v-31h44v31a1 1 0 0 0 1 1h6a1 1 0 0 0 1-1v-44a1 1 0 0 0 -.565-.9zm-53.435 11.9v-2h48v2zm52 32h-4v-30h1a1 1 0 0 0 1-1v-4a1 1 0 0 0 -1-1h-50a1 1 0 0 0 -1 1v4a1 1 0 0 0 1 1h1v30h-4v-42.372l28-13.518 28 13.518z"/><path d="m46 46.01h-6v-13a1 1 0 0 0 -1-1h-14a1 1 0 0 0 -1 1v13h-6a1 1 0 0 0 -1 1v14a1 1 0 0 0 1 1h28a1 1 0 0 0 1-1v-14a1 1 0 0 0 -1-1zm-6 2v3h-2v-3zm-9-14h2v3h-2zm-7 14h2v3h-2zm7 12h-12v-12h3v4a1 1 0 0 0 1 1h4a1 1 0 0 0 1-1v-4h3zm-5-14v-12h3v4a1 1 0 0 0 1 1h4a1 1 0 0 0 1-1v-4h3v12zm19 14h-12v-12h3v4a1 1 0 0 0 1 1h4a1 1 0 0 0 1-1v-4h3z"/></g></svg>