<?xml version="1.0" standalone="no"?>
<!DOCTYPE svg PUBLIC "-//W3C//DTD SVG 20010904//EN"
 "http://www.w3.org/TR/2001/REC-SVG-20010904/DTD/svg10.dtd">
<svg version="1.0" xmlns="http://www.w3.org/2000/svg"
 width="512.000000pt" height="512.000000pt" viewBox="0 0 512.000000 512.000000"
 preserveAspectRatio="xMidYMid meet">

<g transform="translate(0.000000,512.000000) scale(0.100000,-0.100000)"
fill="#fff" stroke="none">
<path d="M2445 4949 c-27 -6 -87 -28 -132 -50 -112 -54 -199 -140 -252 -252
-53 -111 -61 -164 -61 -424 l0 -223 -534 0 c-502 0 -535 -1 -556 -18 -21 -17
-57 -192 -386 -1873 -200 -1020 -363 -1864 -364 -1877 0 -13 11 -34 25 -47
l24 -25 2351 0 2351 0 24 25 c14 13 25 34 25 47 -1 13 -164 857 -364 1877
-329 1681 -365 1856 -386 1873 -21 17 -47 18 -356 18 l-334 0 0 223 c0 260 -8
313 -61 424 -98 204 -317 329 -545 310 -40 -4 -91 -13 -114 -21 -37 -13 -47
-13 -84 1 -52 18 -205 25 -271 12z m115 -153 c0 -2 -16 -24 -37 -48 -47 -55
-98 -167 -112 -242 -6 -33 -11 -160 -11 -283 l0 -223 -121 0 -121 0 4 248 3
247 32 67 c17 37 50 87 72 111 44 48 135 101 197 116 42 10 94 14 94 7z m567
-36 c87 -40 146 -98 191 -188 l37 -76 3 -248 4 -248 -120 0 -120 0 -4 258 c-4
228 -7 263 -25 312 -30 81 -57 131 -97 179 -20 24 -36 45 -36 48 0 14 111 -11
167 -37z m-298 -66 c34 -31 63 -70 88 -122 l38 -76 3 -248 4 -248 -202 0 -202
0 4 248 3 248 38 76 c39 80 122 168 157 168 10 0 41 -21 69 -46z m-1709 -1534
l0 -680 80 0 80 0 0 680 0 680 48 0 47 0 300 -1533 c164 -842 313 -1605 330
-1694 l32 -162 -23 17 c-13 9 -183 150 -378 312 l-355 295 0 423 -1 422 -80 0
-80 0 0 -422 0 -423 -361 -300 c-198 -165 -368 -306 -378 -313 -16 -11 -15 3
13 150 18 90 167 853 331 1695 l300 1533 48 0 47 0 0 -680z m1280 440 l0 -240
-80 0 -80 0 0 -80 0 -80 240 0 240 0 0 80 0 80 -80 0 -80 0 0 240 0 240 400 0
400 0 0 -240 0 -240 -80 0 -80 0 0 -80 0 -80 240 0 240 0 0 80 0 80 -80 0 -80
0 0 240 0 240 288 0 287 0 338 -1733 c187 -952 341 -1744 344 -1760 l5 -27
-1278 0 -1279 0 -338 1733 c-187 952 -341 1744 -344 1760 l-5 27 431 0 431 0
0 -240z m-823 -2977 l357 -298 -367 -3 c-202 -1 -532 -1 -733 0 l-366 3 363
303 c200 166 369 300 376 298 7 -3 173 -139 370 -303z"/>
<path d="M1120 2240 l0 -80 80 0 80 0 0 80 0 80 -80 0 -80 0 0 -80z"/>
<path d="M3186 2790 c-63 -16 -153 -70 -197 -117 -22 -24 -55 -74 -72 -111
-29 -61 -32 -76 -32 -163 0 -90 2 -99 37 -171 45 -91 103 -147 196 -191 61
-29 76 -32 162 -32 86 0 101 3 162 32 93 44 151 100 196 191 35 72 37 81 37
172 0 91 -2 100 -37 172 -68 136 -188 217 -336 224 -42 2 -94 -1 -116 -6z
m168 -162 c86 -26 166 -136 166 -228 0 -124 -116 -240 -240 -240 -124 0 -240
116 -240 240 0 63 23 114 75 165 70 71 145 90 239 63z"/>
<path d="M2640 1680 l0 -80 200 0 200 0 0 80 0 80 -200 0 -200 0 0 -80z"/>
<path d="M3200 1680 l0 -80 400 0 400 0 0 80 0 80 -400 0 -400 0 0 -80z"/>
<path d="M2480 1360 l0 -80 480 0 480 0 0 80 0 80 -480 0 -480 0 0 -80z"/>
<path d="M3600 1360 l0 -80 320 0 320 0 0 80 0 80 -320 0 -320 0 0 -80z"/>
</g>
</svg>
