<?xml version="1.0" standalone="no"?>
<!DOCTYPE svg PUBLIC "-//W3C//DTD SVG 20010904//EN"
 "http://www.w3.org/TR/2001/REC-SVG-20010904/DTD/svg10.dtd">
<svg version="1.0" xmlns="http://www.w3.org/2000/svg"
 width="512.000000pt" height="512.000000pt" viewBox="0 0 512.000000 512.000000"
 preserveAspectRatio="xMidYMid meet">

<g transform="translate(0.000000,512.000000) scale(0.100000,-0.100000)"
fill="#fff" stroke="none">
<path d="M1555 4790 c-145 -27 -271 -94 -381 -204 -90 -90 -142 -175 -182
-294 -24 -73 -26 -90 -30 -344 l-4 -268 81 0 81 0 0 223 c0 260 8 313 60 423
87 181 294 314 488 314 l34 0 -65 -69 c-75 -80 -129 -171 -165 -279 -24 -73
-26 -90 -30 -344 l-4 -268 81 0 81 0 0 223 c0 260 8 313 61 424 45 93 134 192
212 233 l47 25 46 -25 c59 -31 153 -123 190 -185 15 -26 39 -77 53 -114 24
-63 25 -77 29 -323 l4 -258 80 0 80 0 -4 268 c-4 254 -6 271 -30 344 -36 108
-90 199 -166 280 l-67 71 72 -6 c134 -13 252 -68 347 -163 65 -65 99 -118 135
-213 24 -63 25 -77 29 -323 l4 -258 80 0 80 0 -4 268 c-4 254 -6 271 -30 344
-40 119 -92 204 -182 294 -90 90 -175 143 -294 182 -66 22 -96 25 -207 26 -97
0 -145 -4 -188 -17 -53 -16 -61 -17 -110 -2 -62 19 -242 28 -312 15z"/>
<path d="M476 3498 c-3 -13 -36 -680 -75 -1483 -39 -803 -73 -1477 -75 -1497
l-4 -38 882 0 882 0 73 952 c40 524 75 982 79 1018 4 49 11 70 28 87 23 23 26
23 264 23 185 0 240 3 240 13 1 40 -42 906 -46 925 -4 22 -6 22 -164 22 l-160
0 0 -135 c0 -131 -1 -137 -25 -160 -32 -33 -78 -33 -110 0 -24 23 -25 29 -25
160 l0 135 -560 0 -560 0 0 -259 0 -258 111 -73 c60 -41 114 -81 120 -91 5
-10 9 -167 9 -364 l0 -346 -25 -24 -24 -25 -271 0 -271 0 -24 25 -25 24 0 346
c0 197 4 354 9 364 6 10 60 50 120 91 l111 73 0 258 0 259 -240 0 -240 0 -4
-22z"/>
<path d="M2887 3468 c5 -80 43 -853 43 -882 0 -26 0 -26 85 -26 l85 0 -1 33
c0 17 -13 232 -27 477 l-27 445 -81 3 -81 3 4 -53z"/>
<path d="M3210 3473 c0 -27 11 -235 25 -463 14 -228 25 -423 25 -432 0 -16 10
-18 75 -18 53 0 75 4 75 13 1 40 -42 906 -46 925 -4 20 -10 22 -79 22 l-75 0
0 -47z"/>
<path d="M958 2809 l-78 -52 0 -258 0 -259 160 0 160 0 0 259 0 258 -78 52
c-43 28 -80 51 -83 51 -2 0 -39 -23 -81 -51z"/>
<path d="M2322 1453 c-40 -522 -73 -954 -72 -960 0 -19 1900 -19 1900 0 1 6
-32 438 -72 960 l-72 947 -806 0 -806 0 -72 -947z m533 602 l25 -24 0 -352 c0
-247 4 -364 12 -393 16 -55 99 -138 154 -154 61 -18 260 -16 317 4 57 19 128
93 145 152 8 27 12 148 12 391 l0 352 25 24 c32 33 78 33 111 0 l25 -25 -3
-383 -3 -383 -37 -76 c-45 -91 -103 -147 -196 -191 l-67 -32 -175 0 -175 0
-65 31 c-95 46 -153 101 -197 192 l-38 76 -3 383 -3 383 25 25 c33 33 79 33
111 0z"/>
<path d="M4170 2376 c0 -13 29 -403 65 -866 36 -463 65 -850 65 -859 0 -9 40
45 89 119 l89 135 -73 730 c-41 402 -74 738 -75 748 0 15 -11 17 -80 17 -77 0
-80 -1 -80 -24z"/>
<path d="M4490 2383 c1 -10 34 -345 74 -745 l73 -727 63 -96 c35 -53 66 -97
69 -100 4 -2 -23 377 -58 841 l-65 844 -78 0 c-68 0 -78 -2 -78 -17z"/>
<path d="M4472 605 l-82 -125 170 0 170 0 -82 125 c-46 68 -85 124 -88 124 -3
0 -42 -56 -88 -124z"/>
</g>
</svg>
