<svg xmlns="http://www.w3.org/2000/svg" width="800" height="800" version="1.0" fill="#fff" viewBox="0 0 600 600"><path d="M72.1 94.5c-5.5 1.7-10.6 6.6-12.7 12.2-3.4 8.8.4 22 7.9 27.7 4.3 3.3 6.5 4 21.7 7.6 13.6 3.1 19 5.3 25.2 10.1 5.1 4.1 10.4 12.5 12.3 19.5.9 3.2 7.2 44.9 14 92.6 7 48.8 13.1 88.4 14 90.5 2 4.8 5.9 8.9 11 11.6l4 2.2 156.2.3 156.3.2 1.7 2.7c1.6 2.4 1.8 5.3 1.8 22.1 0 22.4.1 22.2-9.4 22.2h-5.6l-3-5.8c-6.5-12.5-21.2-23.8-36-27.7-7.4-1.9-21.3-1.9-28.5 0-14.1 3.7-27.6 14-35.2 26.7l-4 6.8h-92.3l-3.4-6.1c-6.8-12.5-21.3-23.6-35.7-27.4-12.4-3.2-28.8-1.3-40.7 4.6-7.7 3.9-20.4 16.3-24.1 23.6L165 416h-33l-2.5 3.8c-3.9 5.9-5.1 14.5-3.6 25 .7 4.8 1.8 9.6 2.6 10.8 3.5 5.4 3.6 5.4 20.8 5.4l16.2.1 2.5 5.2c3.3 6.8 14.9 18.4 22.5 22.4 18.5 9.6 36.2 9.7 54.7.1 8.9-4.6 19.2-14.6 23.3-22.8l2.5-5h93.5l3 5.8c3.8 7.4 14.4 17.8 22 21.9 18.3 9.6 36 9.6 55 0 7.4-3.7 19.2-15.3 22.7-22.2l2.6-5 11.3-1.1c6.3-.7 14-2.1 17.1-3.2 15.8-5.6 27.3-19.5 31.4-37.8 1.4-6.4 1.6-11.1 1.1-28.3-.6-22.5-1.7-29.2-6.7-39.6-7.6-16-25.3-27.5-42.1-27.5-6.6 0-6.7 0-4.5-7.6.8-2.7 5.2-19.3 9.7-36.9 7.3-28.7 16.2-63.2 30.4-118.4 3.7-14.4 4.6-19.5 4.2-23.2-1.1-9-6.3-16-14.7-19.8-4.5-2-5.8-2.1-141-2-111.5 0-137.2.2-140.3 1.3-9.4 3.4-15.9 12.5-15.9 22.4 0 4.8 4.2 34.6 14.2 100.7 6.1 39.7 12 80.5 12 82 0 1.6-1 1.7-13.3 1.3-10.8-.4-14-.9-17.4-2.6-5.3-2.7-9.4-7-11.6-11.8-1.1-2.5-6.1-34.3-13.7-87.4-6.7-45.9-12.6-85.3-13.1-87.5-2.7-9.9-10.6-19.8-19.3-24-4-1.9-67.8-17.7-70.5-17.4-.3 0-2.6.6-5 1.4m311.9 94V204h32v41l-6.7.1c-3.8.1-11 .1-16 .1H384V277l-20.7-.2-20.8-.3-.5-15.5-.5-15.5-12-.2c-6.6-.1-13.5-.2-15.2-.2l-3.3-.1v-41h31v-31h42zM230.2 413.4c13.7 6.6 19.5 24.2 12.3 37.4-5.3 9.7-13.2 14.5-24 14.6-8.3.1-14.3-2.3-19.7-7.6-10.3-10.4-10.6-28.1-.5-38.6 8.1-8.4 21.3-10.9 31.9-5.8m197.6-.8c13.1 5.3 20.2 20.9 15.7 34.5-2.5 7.5-10.3 15.2-17.5 17.3-11.2 3.3-19.9 1.1-28-7.2-6.3-6.4-8-10.8-8-19.8.1-19 20-32 37.8-24.8"/></svg>