<svg xmlns="http://www.w3.org/2000/svg" width="800" height="800" version="1.0" fill="#fff" viewBox="0 0 600 600"><path d="M245.7 75.4c-5.8 2.1-10.3 6.1-13.1 11.8-2.5 5.1-2.6 5.6-2.6 25.5V133h24V98h90v2.2c.1 1.3.2 9 .3 17.3l.2 15 12.3.3 12.3.3-.3-20.8c-.3-19.2-.5-21.1-2.5-24.9-2.8-5.3-9.1-10.7-14.2-12.2-5.9-1.8-101.3-1.6-106.4.2M111 130.7c-3.3 1.2-4 3.6-4 14 0 15-1.4 14.3 26 14.3s26 .7 26-14.3c0-15.1 1.7-14.2-24.7-14.4-12-.1-22.5.1-23.3.4M442.2 131.6c-2.1 1.4-2.2 2.3-2.2 12.9 0 15.4-1.5 14.5 25.6 14.5 27.2 0 26.4.5 26.4-14.5s.8-14.5-26.4-14.5c-17.5 0-21.5.3-23.4 1.6"/><path d="M77.6 143.4c-6.8 2.9-10 5.6-12.7 10.8-1.8 3.6-1.9 8.4-1.9 165.6v161.9l2.6 3.9c3 4.4 4.3 5.6 9.9 8.7l4 2.2h219c209.6 0 219.2-.1 223.7-1.8 5.7-2.2 11.9-8.9 13.6-14.5 1.6-5.1 1.7-316.8.2-322.3-1.3-4.7-7.2-11.5-12.4-14.1-3.1-1.6-6.5-2.2-14.3-2.6l-10.3-.5v7.3c0 8.9-1.8 12.9-6.9 15.8-3.7 2.1-5.2 2.2-26.2 2.2-19.4 0-22.9-.2-25.8-1.8-5.7-2.9-7.4-6-7.7-14.9l-.3-7.8H166.5l-.5 8.1c-.6 9.2-2.4 12.8-7.5 15-4.9 2-46.1 2-51 0-5.1-2.2-6.9-5.8-7.5-15l-.5-8.1-8-.2c-6.6-.2-9 .1-13.9 2.1M335 247.5V288l40.3.2 40.2.3v69.6l-40.2-.1H335l-.2 40.6-.3 40.6-35.2.1-35.3.2-.2-40.5-.3-40.5H183V288h81v-81h71z"/></svg>