<?xml version="1.0" standalone="no"?>
<!DOCTYPE svg PUBLIC "-//W3C//DTD SVG 20010904//EN"
 "http://www.w3.org/TR/2001/REC-SVG-20010904/DTD/svg10.dtd">
<svg version="1.0" xmlns="http://www.w3.org/2000/svg"
 width="512.000000pt" height="512.000000pt" viewBox="0 0 512.000000 512.000000"
 preserveAspectRatio="xMidYMid meet">

<g transform="translate(0.000000,512.000000) scale(0.100000,-0.100000)"
fill="#808080" stroke="none">
<path d="M1340 5104 c-162 -44 -286 -184 -310 -352 -13 -91 -13 -4293 0 -4384
25 -171 149 -310 316 -353 54 -14 200 -15 1240 -13 l1179 3 58 24 c112 45 199
135 249 259 l23 57 0 2210 0 2210 -24 66 c-43 120 -133 214 -248 261 l-58 23
-1185 2 c-1020 2 -1193 0 -1240 -13z m2412 -170 c64 -21 121 -74 149 -136 l24
-53 3 -622 3 -623 -1371 0 -1371 0 3 628 3 627 27 51 c15 29 44 66 65 83 76
63 9 59 1269 60 1016 1 1156 -1 1196 -15z m173 -2374 l0 -765 -1365 0 -1365 0
-3 755 c-1 415 0 761 3 768 3 10 282 12 1367 10 l1363 -3 0 -765z m3 -1562
l-3 -623 -24 -53 c-29 -65 -89 -118 -155 -137 -76 -23 -2311 -22 -2377 0 -62
21 -115 67 -147 129 l-27 51 -3 628 -3 627 1371 0 1371 0 -3 -622z"/>
<path d="M1392 4667 c-22 -23 -22 -27 -22 -401 l0 -377 25 -24 c31 -32 75 -32
112 -1 l28 24 0 375 0 375 -24 26 c-32 34 -88 36 -119 3z"/>
<path d="M2480 4595 c-182 -59 -233 -300 -90 -428 48 -44 96 -67 139 -67 39 0
81 -16 97 -38 22 -28 17 -86 -9 -110 -37 -35 -82 -29 -133 18 -51 47 -80 50
-123 14 -52 -43 -35 -114 42 -174 97 -77 248 -68 335 19 153 154 61 411 -158
437 -68 8 -100 34 -100 81 0 46 13 68 50 83 36 15 84 0 101 -32 15 -29 72 -50
103 -39 31 13 56 48 56 82 0 39 -57 109 -111 137 -58 29 -140 36 -199 17z"/>
<path d="M1414 2976 c-17 -8 -34 -21 -38 -31 -10 -28 -7 -754 4 -775 5 -10 25
-24 44 -30 46 -15 89 7 105 51 7 21 11 148 11 369 0 221 -4 348 -11 369 -6 18
-24 38 -40 46 -34 18 -36 18 -75 1z"/>
<path d="M2503 2981 c-57 -15 -124 -61 -153 -108 -108 -170 -11 -369 195 -398
63 -9 95 -36 95 -82 0 -46 -14 -69 -50 -82 -40 -13 -76 0 -111 42 -21 25 -34
31 -64 31 -45 0 -85 -39 -85 -83 0 -45 51 -105 115 -137 174 -84 369 35 367
226 -1 134 -84 228 -223 251 -79 14 -109 38 -109 88 1 93 96 115 161 38 35
-42 91 -44 125 -3 32 36 30 74 -4 122 -52 72 -174 116 -259 95z"/>
<path d="M2513 1359 c-139 -26 -231 -162 -202 -298 24 -111 101 -182 221 -203
77 -14 108 -38 108 -85 0 -46 -13 -68 -50 -83 -36 -15 -84 0 -101 32 -15 29
-72 50 -103 39 -31 -13 -56 -48 -56 -82 0 -39 57 -109 110 -136 65 -33 127
-39 193 -18 73 23 120 63 153 131 32 66 36 146 10 209 -34 80 -130 154 -202
155 -44 0 -93 19 -104 40 -18 34 -12 85 13 108 37 35 82 29 133 -18 51 -47 80
-50 123 -14 41 34 41 76 0 132 -50 69 -155 108 -246 91z"/>
<path d="M1395 1255 l-25 -24 0 -379 0 -379 23 -21 c33 -31 87 -29 118 4 l24
26 0 375 0 375 -28 24 c-37 31 -81 31 -112 -1z"/>
</g>
</svg>
