<?xml version="1.0" standalone="no"?>
<!DOCTYPE svg PUBLIC "-//W3C//DTD SVG 20010904//EN"
 "http://www.w3.org/TR/2001/REC-SVG-20010904/DTD/svg10.dtd">
<svg version="1.0" xmlns="http://www.w3.org/2000/svg"
 width="512.000000pt" height="512.000000pt" viewBox="0 0 512.000000 512.000000"
 preserveAspectRatio="xMidYMid meet">

<g transform="translate(0.000000,512.000000) scale(0.100000,-0.100000)"
fill="#808080" stroke="none">
<path d="M1065 5095 l-25 -24 0 -336 0 -335 -495 0 -496 0 -24 -25 -25 -24 0
-2151 0 -2151 25 -24 24 -25 2511 0 2511 0 24 25 25 24 0 2151 0 2151 -25 24
-24 25 -496 0 -495 0 0 335 0 336 -25 24 c-15 16 -36 25 -55 25 -19 0 -40 -9
-55 -25 l-25 -24 0 -336 0 -335 -1360 0 -1360 0 0 335 0 336 -25 24 c-15 16
-36 25 -55 25 -19 0 -40 -9 -55 -25z m-25 -1230 l0 -376 25 -24 c32 -33 78
-33 110 0 l25 24 0 376 0 375 1360 0 1360 0 0 -375 0 -376 25 -24 c32 -33 78
-33 110 0 l25 24 0 376 0 375 440 0 440 0 0 -2040 0 -2040 -2400 0 -2400 0 0
2040 0 2040 440 0 440 0 0 -375z"/>
<path d="M2511 3423 c-30 -26 -125 -202 -171 -319 -44 -113 -75 -267 -66 -328
15 -96 90 -198 172 -232 31 -13 34 -18 34 -59 l0 -45 -95 0 c-88 0 -98 -2
-120 -25 -25 -24 -25 -24 -25 -239 l0 -214 -188 -4 -188 -3 -76 -37 c-91 -45
-147 -103 -191 -196 l-32 -67 -3 -442 -3 -443 25 -25 25 -25 951 0 951 0 25
25 25 25 -3 443 -3 442 -32 67 c-44 93 -100 151 -191 196 l-76 37 -188 3 -188
4 0 214 c0 215 0 215 -25 239 -22 23 -32 25 -120 25 l-95 0 0 45 c0 42 2 46
34 59 53 22 121 91 147 149 58 129 2 372 -146 631 -54 93 -76 116 -115 116
-15 0 -37 -8 -49 -17z m87 -301 c44 -94 71 -175 82 -248 11 -70 6 -109 -19
-143 l-18 -23 -26 26 c-35 35 -79 35 -114 0 l-26 -26 -18 23 c-35 47 -33 128
7 254 20 64 85 205 94 205 4 0 21 -31 38 -68z m122 -1002 l0 -160 -160 0 -160
0 0 160 0 160 160 0 160 0 0 -160z m514 -332 c55 -16 138 -99 154 -154 18 -60
16 -204 -2 -204 -8 0 -45 -16 -81 -36 -38 -19 -89 -38 -116 -41 -43 -5 -58 -1
-136 38 -85 42 -91 44 -183 44 -91 0 -99 -2 -186 -42 -50 -24 -106 -43 -124
-43 -18 0 -74 19 -124 43 -87 40 -95 42 -186 42 -92 0 -98 -2 -183 -44 -78
-39 -93 -43 -136 -38 -27 3 -78 22 -116 41 -36 20 -73 36 -81 36 -18 0 -20
144 -2 204 15 51 99 137 148 153 52 16 1298 17 1354 1z m-863 -542 c130 -69
248 -69 378 0 88 47 142 46 236 -1 129 -65 229 -69 345 -14 34 16 64 29 66 29
2 0 4 -85 4 -190 l0 -190 -840 0 -840 0 0 190 c0 105 2 190 4 190 2 0 32 -13
66 -29 116 -55 216 -51 345 14 94 47 148 48 236 1z"/>
</g>
</svg>
