<?xml version="1.0" encoding="iso-8859-1"?>
<!-- Generator: Adobe Illustrator 19.0.0, SVG Export Plug-In . SVG Version: 6.00 Build 0)  -->
<svg version="1.1" id="Capa_1" xmlns="http://www.w3.org/2000/svg" fill="#666" xmlns:xlink="http://www.w3.org/1999/xlink" x="0px" y="0px"
	 viewBox="0 0 480.045 480.045" style="enable-background:new 0 0 480.045 480.045;" xml:space="preserve">
<g>
	<g>
		<path d="M423.28,169.626C415.447,68.419,327.052-7.276,225.845,0.557C135.524,7.547,63.766,79.306,56.776,169.626
			c-13.511,2.973-25.898,9.729-35.712,19.48C-7.029,217.25-6.987,262.837,21.156,290.93c10.656,10.636,24.378,17.665,39.236,20.097
			c1.114,0.618,2.359,0.961,3.632,1c0.507-0.013,1.013-0.067,1.512-0.16c0.21-0.05,0.415-0.114,0.616-0.192
			c1.944,0.152,3.872,0.352,5.872,0.352h16c4.418,0,8-3.582,8-8v-128c0-4.418-3.582-8-8-8H72.976
			c8.647-92.265,90.451-160.05,182.716-151.404c80.295,7.525,143.879,71.109,151.404,151.404h-15.072c-4.418,0-8,3.582-8,8v128
			c0,4.418,3.582,8,8,8h16v16c0,61.712-48.24,108.616-113.232,111.704c-4.623-17.021-22.169-27.072-39.19-22.448
			c-17.021,4.623-27.072,22.169-22.448,39.19c4.623,17.021,22.169,27.072,39.19,22.448c11.2-3.042,19.868-11.921,22.64-23.19
			c74.016-3.224,129.04-56.952,129.04-127.704v-17.832c13.212-3.052,25.316-9.716,34.96-19.248
			c13.5-13.504,21.07-31.826,21.04-50.92C480.04,206.128,456.409,176.809,423.28,169.626z M80.024,184.026v112h-8
			c-2.345,0-4.688-0.139-7.016-0.416c-30.701-3.736-52.561-31.653-48.825-62.355c3.119-25.629,23.355-45.804,48.993-48.845
			c2.273-0.265,4.56-0.394,6.848-0.384H80.024z M264.024,464.026c-8.837,0-16-7.163-16-16s7.163-16,16-16s16,7.163,16,16
			S272.86,464.026,264.024,464.026z M415.064,295.602c-2.336,0.283-4.687,0.424-7.04,0.424h-8v-112h8
			c30.928-0.09,56.073,24.908,56.164,55.836C464.27,268.194,443.181,292.124,415.064,295.602z"/>
	</g>
</g>
<g>
</g>
<g>
</g>
<g>
</g>
<g>
</g>
<g>
</g>
<g>
</g>
<g>
</g>
<g>
</g>
<g>
</g>
<g>
</g>
<g>
</g>
<g>
</g>
<g>
</g>
<g>
</g>
<g>
</g>
</svg>
