<?xml version="1.0" standalone="no"?>
<!DOCTYPE svg PUBLIC "-//W3C//DTD SVG 20010904//EN"
 "http://www.w3.org/TR/2001/REC-SVG-20010904/DTD/svg10.dtd">
<svg version="1.0" xmlns="http://www.w3.org/2000/svg"
 width="512.000000pt" height="512.000000pt" viewBox="0 0 512.000000 512.000000"
 preserveAspectRatio="xMidYMid meet">

<g transform="translate(0.000000,512.000000) scale(0.100000,-0.100000)"
fill="#808080" stroke="none">
<path d="M813 5105 c-139 -30 -286 -140 -350 -261 -57 -108 -63 -145 -63 -395
l0 -226 -38 -7 c-75 -12 -77 -17 -80 -292 -4 -298 -2 -302 93 -316 18 -3 20
-12 23 -91 l3 -87 -30 0 c-17 0 -42 -10 -58 -24 l-28 -24 0 -145 c0 -165 7
-182 77 -193 l38 -7 0 -1296 c0 -1432 -4 -1338 63 -1465 69 -129 225 -241 374
-265 49 -9 371 -11 1143 -9 l1075 3 72 26 c155 57 265 167 331 333 15 37 18
122 22 791 l5 750 516 5 515 5 75 37 c82 40 146 101 192 180 54 91 57 126 57
814 0 414 -4 651 -11 690 -28 155 -140 283 -292 337 -21 8 -198 13 -542 17
l-510 5 -5 360 c-5 347 -6 362 -28 417 -71 175 -212 296 -390 334 -97 20
-2155 19 -2249 -1z m2279 -173 c75 -30 147 -96 189 -174 l34 -63 3 -352 3
-352 -508 -3 c-507 -3 -508 -3 -566 -27 -111 -44 -207 -143 -250 -258 -22 -57
-22 -67 -25 -723 -2 -579 -1 -674 13 -737 29 -129 118 -237 244 -296 55 -26
81 -32 159 -35 l92 -4 0 -333 c0 -318 1 -333 20 -358 24 -30 66 -42 101 -28
14 5 173 138 354 296 182 159 338 295 348 303 17 15 17 -14 15 -674 l-3 -689
-34 -63 c-42 -78 -114 -144 -189 -174 l-57 -23 -1069 -3 c-1179 -3 -1138 -5
-1238 59 -59 38 -100 84 -136 152 l-27 52 0 2135 0 2135 27 52 c36 68 77 114
136 152 97 62 51 60 1232 58 l1075 -2 57 -23z m1423 -1126 c28 -12 67 -42 88
-66 76 -84 72 -37 72 -790 0 -667 0 -676 -21 -721 -26 -55 -77 -108 -130 -135
-37 -18 -71 -19 -595 -24 -495 -4 -559 -7 -575 -21 -11 -9 -170 -146 -354
-304 l-335 -287 -5 281 c-6 332 0 317 -120 332 -196 24 -342 166 -370 356 -12
88 -13 957 0 1045 20 139 110 262 232 318 35 15 74 30 88 33 14 2 464 5 1000
6 l975 1 50 -24z"/>
<path d="M1666 4649 c-35 -27 -36 -86 -3 -117 23 -21 30 -22 278 -22 243 0
256 1 277 20 35 33 33 84 -4 118 -25 22 -30 22 -273 22 -236 0 -250 -1 -275
-21z"/>
<path d="M1839 842 c-34 -17 -65 -44 -84 -71 -28 -39 -30 -50 -30 -126 0 -76
2 -87 30 -126 39 -56 120 -99 184 -99 27 0 67 10 97 24 167 78 170 315 5 399
-73 36 -131 36 -202 -1z"/>
<path d="M2634 3216 c-128 -60 -167 -219 -83 -336 37 -51 114 -90 180 -90 64
0 145 43 184 99 28 39 30 50 30 126 0 76 -2 87 -30 126 -39 56 -120 99 -184
99 -27 0 -67 -10 -97 -24z"/>
<path d="M3325 3225 c-51 -18 -120 -91 -134 -141 -25 -89 -6 -161 58 -225 163
-164 432 -3 371 221 -8 31 -27 60 -59 91 -66 67 -148 85 -236 54z"/>
<path d="M3979 3212 c-80 -42 -113 -94 -117 -185 -3 -65 0 -77 27 -124 39 -66
99 -103 178 -110 151 -12 272 137 229 280 -20 67 -60 115 -120 143 -70 33
-129 31 -197 -4z"/>
</g>
</svg>
