<svg xmlns="http://www.w3.org/2000/svg" width="682.667" height="682.667" fill="white" version="1.0" viewBox="0 0 512 512"><path d="M412 1.5c-24 5.3-43 20-53.4 41.1-6.1 12.5-7.1 17.2-7.1 33.9 0 15.3.8 19.1 6.9 33.5.4 1.1-14.3 11.3-58.9 40.7l-59.6 39.2-12.2-12.3c-16.7-16.8-31.2-25.9-51.5-32.5-15.2-5-26.3-6.4-44-5.8-25.5.9-45 6.9-65.2 20.3-32.2 21.2-52.3 53.9-57.1 92.8-2.1 17.3 0 36.7 6.1 54.7 17.9 53.6 70.6 89.7 126.3 86.6 37.9-2.1 70-18.3 93.9-47.5 1.5-1.7 3-3.2 3.4-3.2s26 16.7 57 37.1l56.3 37.1-.7 3.2c-.4 1.7-.7 9.2-.6 16.6 0 15 1.2 20.5 7 32.4 20.3 41.2 72.7 55.2 110.5 29.5 30.4-20.5 41.8-58.8 27.8-92.6-6.9-16.5-20-30.5-36-38.4-10.9-5.5-17.3-7-30.9-7.6-13.3-.5-19.9.5-31.3 4.7-11.9 4.4-28 17.4-34.5 27.7-1.5 2.4-3 4.3-3.4 4.3-.8 0-106.8-69.8-108.7-71.6-1.2-1.1-1-2.3 1.7-8.6 7.2-16.6 10.3-31.8 10.3-50.8 0-18.9-3.4-34.8-11.2-52.7-1.3-2.9-2.1-5.4-1.8-5.7 1.2-1.1 117.9-77.7 119.1-78.1.7-.3 3.9 1.6 7 4.2 8 6.8 15.5 11.1 25.5 14.6 8.4 3 9.6 3.2 23.8 3.2 16.7 0 21.4-1 33.9-7.1 41.2-20.3 55.2-72.7 29.5-110.5-10.5-15.5-25.7-26.3-44.4-31.6-7.6-2.1-25.7-2.6-33.5-.8m25.6 20.6c13.1 2.4 28.1 12.5 35.5 24 15.4 24.1 9.9 56.5-12.6 73.6-10.7 8.2-20.6 11.4-34.4 11.4-30-.1-54.1-24.2-54.2-54.2 0-13.8 3.2-23.7 11.4-34.4 12.5-16.5 33.2-24.2 54.3-20.4M156.8 161.6c45.8 8.2 81.3 47.1 86 94.2 4.5 44.4-19.1 86.6-59.3 106.3-52.7 25.8-116.3 4-142.4-48.7-20.8-42.3-11.9-91.6 22.6-124.5 25.1-23.9 58-33.5 93.1-27.3m288.7 222.3c22.7 8 37.7 30.9 36.2 55.1-.9 14.9-6.8 27.3-17.8 37.5-23.5 21.7-61.3 18.4-80.6-7-8.2-10.7-11.4-20.6-11.4-34.4 0-10.3 2.4-18.9 7.6-27.6 13.6-22.6 41-32.4 66-23.6"/></svg>