<svg id="Capa_1" enable-background="new 0 0 512 512" height="512" fill="#ba1f1f" viewBox="0 0 512 512" width="512" xmlns="http://www.w3.org/2000/svg"><g><path d="m489.497 50.102h-88.323c-4.143 0-7.501 3.358-7.501 7.501s3.358 7.501 7.501 7.501h88.323c4.136 0 7.501 3.365 7.501 7.501v192.389c0 4.143 3.358 7.501 7.501 7.501s7.501-3.358 7.501-7.501v-192.389c0-12.408-10.095-22.503-22.503-22.503z"/><path d="m504.499 292.936c-4.143 0-7.501 3.358-7.501 7.501v8.728h-481.996v-236.56c0-4.136 3.365-7.501 7.501-7.501h342.387c4.143 0 7.501-3.358 7.501-7.501s-3.358-7.501-7.501-7.501h-342.387c-12.408 0-22.503 10.095-22.503 22.503v322.447c0 12.408 10.095 22.503 22.503 22.503h51.624c4.143 0 7.501-3.358 7.501-7.501s-3.358-7.501-7.501-7.501h-51.624c-4.136 0-7.501-3.365-7.501-7.501v-70.885h481.996v70.885c0 4.136-3.365 7.501-7.501 7.501h-380.015c-4.143 0-7.501 3.358-7.501 7.501s3.358 7.501 7.501 7.501h82.499v29.34h-44.871c-4.143 0-7.501 3.358-7.501 7.501s3.358 7.501 7.501 7.501h217.78c4.143 0 7.501-3.358 7.501-7.501s-3.358-7.501-7.501-7.501h-44.872v-29.34h169.479c12.408 0 22.503-10.095 22.503-22.503v-94.615c0-4.143-3.358-7.501-7.501-7.501zm-199.483 153.96h-98.033v-29.34h98.033z"/><path d="m407.614 291.899c4.105-.123 7.27-3.705 7.27-7.812v-1.816c8.741-2.936 14.329-10.722 15.621-18.41 1.784-10.614-3.964-20.201-14.304-23.856-5.245-1.854-11.031-4.083-14.181-6.553-.483-.379-.841-1.611-.552-3.147.144-.765.811-3.321 3.332-4.08 5.528-1.669 9.047 1.102 9.43 1.423l-.12-.107 1.593.782c7.458 3.66 14.365-5.847 8.579-11.809-1.842-1.699-5.131-3.759-9.398-4.914v-.87c0-4.107-3.165-7.689-7.27-7.812-4.248-.128-7.732 3.278-7.732 7.498v1.646c-6.759 2.278-11.776 8.143-13.156 15.466-1.316 6.984.997 13.777 6.036 17.729 4.844 3.799 11.725 6.519 18.44 8.893 4.465 1.578 4.917 4.8 4.509 7.224-.572 3.406-3.438 7.087-8.379 7.119-5.404.028-6.897-.18-10.82-2.718-3.423-2.214-8.115-1.535-10.464 1.796-2.461 3.488-1.523 8.29 2.019 10.607 4.494 2.94 7.919 4.304 11.815 4.9v1.323c0 4.22 3.484 7.625 7.732 7.498z"/><path d="m268.524 358.298c0-6.041-4.897-10.939-10.938-10.939s-10.938 4.897-10.938 10.939 4.897 10.938 10.938 10.938 10.938-4.897 10.938-10.938z"/><path d="m313.709 290.549c1.766 3.364 5.222 5.454 9.021 5.454s7.255-2.09 9.021-5.454c11.895-22.659 26.074-52.352 26.074-65.131 0-19.351-15.744-35.095-35.095-35.095-19.352 0-35.096 15.743-35.096 35.095.001 12.779 14.18 42.472 26.075 65.131zm9.022-85.224c11.079 0 20.093 9.014 20.093 20.093 0 6.435-7.75 25.58-20.093 49.904-12.344-24.323-20.094-43.469-20.094-49.904 0-11.079 9.014-20.093 20.094-20.093z"/><path d="m216.02 109.543h36.041c4.143 0 7.501-3.358 7.501-7.501s-3.358-7.501-7.501-7.501h-37.751c-5.985 0-11.124 4.068-12.499 9.894l-8.777 37.212h-126.411c-3.185 0-6.161 1.42-8.164 3.896-2.004 2.476-2.771 5.682-2.107 8.798l19.013 89.093c.349 1.637 1.085 3.115 2.089 4.361-4.549 4.59-7.364 10.901-7.364 17.859 0 14 11.389 25.389 25.389 25.389s25.389-11.389 25.389-25.389c0-5.133-1.536-9.911-4.165-13.909h25.624c-2.629 3.998-4.165 8.777-4.165 13.909 0 14 11.389 25.389 25.389 25.389s25.389-11.389 25.389-25.389c0-6.704-2.617-12.806-6.877-17.349 1.161-1.282 2.015-2.866 2.437-4.652zm-34.089 79.652h-23.374l2.371-32.546h28.679zm-61.589 47.548-2.371-32.546h24.452l-2.371 32.546zm-31.065 0-6.945-32.546h20.597l2.371 32.546zm27.601-47.548-2.371-32.546h31.381l-2.371 32.546zm38.215 47.548 2.371-32.546h20.928l-7.676 32.546zm-55.628-80.093 2.371 32.546h-22.706l-6.945-32.546zm-3.985 119.391c-5.727 0-10.387-4.66-10.387-10.387s4.659-10.386 10.387-10.386 10.387 4.659 10.387 10.386c0 5.728-4.66 10.387-10.387 10.387zm68.072 0c-5.727 0-10.387-4.66-10.387-10.387s4.659-10.386 10.387-10.386 10.387 4.659 10.387 10.386c0 5.728-4.66 10.387-10.387 10.387z"/><path d="m416.41 111.939h-120.9c-4.143 0-7.501 3.358-7.501 7.501s3.358 7.501 7.501 7.501h120.9c4.143 0 7.501-3.358 7.501-7.501s-3.358-7.501-7.501-7.501z"/><path d="m331.948 161.654c4.143 0 7.501-3.358 7.501-7.501s-3.358-7.501-7.501-7.501h-36.438c-4.143 0-7.501 3.358-7.501 7.501s3.358 7.501 7.501 7.501z"/><path d="m451.785 154.153c0-4.143-3.358-7.501-7.501-7.501h-73.091c-4.143 0-7.501 3.358-7.501 7.501s3.358 7.501 7.501 7.501h73.091c4.143 0 7.501-3.358 7.501-7.501z"/><circle cx="322.73" cy="226.993" r="8.801"/></g></svg>
