<?xml version="1.0"?>
<svg xmlns="http://www.w3.org/2000/svg" fill="#b10000" width="512" height="512" viewBox="0 0 512 512"><path d="M476,40H36A28.031,28.031,0,0,0,8,68V380a28.031,28.031,0,0,0,28,28H196.9l-10.67,32H168a8,8,0,0,0-8,8v16H104a8,8,0,0,0,0,16H408a8,8,0,0,0,0-16H352V448a8,8,0,0,0-8-8H325.77L315.1,408H476a28.031,28.031,0,0,0,28-28V68A28.031,28.031,0,0,0,476,40ZM336,456v8H176v-8ZM203.1,440l10.67-32h84.46l10.67,32ZM488,380a12.01,12.01,0,0,1-12,12H36a12.01,12.01,0,0,1-12-12V344H488Zm0-52H24V68A12.01,12.01,0,0,1,36,56H476a12.01,12.01,0,0,1,12,12Z"/></svg>
