<?xml version="1.0" standalone="no"?>
<!DOCTYPE svg PUBLIC "-//W3C//DTD SVG 20010904//EN"
 "http://www.w3.org/TR/2001/REC-SVG-20010904/DTD/svg10.dtd">
<svg version="1.0" xmlns="http://www.w3.org/2000/svg"
 width="512.000000pt" height="512.000000pt" viewBox="0 0 512.000000 512.000000"
 preserveAspectRatio="xMidYMid meet">

<g transform="translate(0.000000,512.000000) scale(0.100000,-0.100000)"
fill="#808080" stroke="none">
<path d="M565 5096 c-17 -7 -36 -25 -43 -40 -9 -21 -12 -355 -12 -1482 0
-1619 -5 -1513 67 -1533 53 -15 4422 -15 4475 -1 74 21 68 -109 68 1532 l0
1477 -24 28 -24 28 -2239 2 c-1837 2 -2243 0 -2268 -11z m4385 -1181 l0 -1025
-2135 0 -2135 0 0 1018 c0 560 3 1022 7 1025 3 4 964 7 2135 7 l2128 0 0
-1025z m0 -1280 l0 -85 -2135 0 -2135 0 0 85 0 85 2135 0 2135 0 0 -85z m0
-340 l0 -85 -2135 0 -2135 0 0 78 c0 43 3 82 7 85 3 4 964 7 2135 7 l2128 0 0
-85z"/>
<path d="M1265 4763 c-37 -9 -64 -44 -71 -92 -19 -135 -112 -228 -246 -246
-31 -5 -54 -15 -70 -32 l-23 -25 0 -459 c0 -458 0 -458 22 -480 14 -15 41 -25
79 -30 139 -19 215 -99 239 -253 4 -21 17 -49 30 -62 l24 -24 1565 0 1565 0
26 23 c19 17 28 37 36 86 12 75 28 109 73 154 42 43 94 67 163 76 35 5 62 15
76 30 22 21 22 24 25 464 1 243 0 452 -3 464 -9 36 -44 62 -94 69 -63 9 -120
35 -160 75 -37 37 -81 121 -81 157 0 12 -6 38 -14 57 -11 26 -23 36 -53 44
-38 11 -3064 14 -3108 4z m3025 -212 c27 -102 140 -219 257 -267 l58 -23 3
-349 2 -348 -54 -17 c-114 -36 -240 -165 -267 -273 l-11 -44 -1464 0 c-1388 0
-1464 1 -1464 18 0 28 -55 136 -91 177 -44 50 -135 108 -193 125 l-46 13 0
349 c0 323 1 349 18 354 66 23 149 70 192 110 47 44 120 166 120 200 0 12 233
14 1465 14 l1464 0 11 -39z"/>
<path d="M2660 4397 c-269 -91 -416 -379 -329 -645 56 -172 223 -313 406 -344
270 -45 537 149 583 424 43 251 -117 498 -369 572 -81 24 -211 21 -291 -7z
m300 -178 c263 -124 257 -494 -9 -617 -79 -37 -191 -37 -273 0 -69 32 -136 96
-168 163 -36 73 -40 189 -9 270 29 79 112 163 189 193 78 31 193 27 270 -9z"/>
<path d="M0 1775 l0 -85 470 0 470 0 0 -510 0 -510 -470 0 -470 0 0 -85 0 -85
800 0 799 0 484 -241 484 -242 70 1 c52 0 81 6 119 24 92 45 1879 1091 1921
1125 90 72 125 221 75 323 -48 101 -143 163 -247 162 -33 0 -440 -66 -904
-147 l-844 -147 -251 251 -251 251 -1128 0 -1127 0 0 -85z m1280 -595 l0 -510
-85 0 -85 0 0 510 0 510 85 0 85 0 0 -510z m1257 158 c306 -307 352 -358 358
-390 14 -76 -15 -142 -75 -173 -34 -18 -112 -20 -143 -4 -12 6 -126 114 -252
240 l-230 229 -60 -60 -60 -60 235 -235 c247 -247 289 -279 381 -293 202 -30
379 119 379 318 0 88 -31 159 -102 235 -56 61 -58 65 -36 70 110 25 1573 271
1592 268 36 -7 74 -49 82 -89 14 -73 30 -62 -816 -556 -1115 -651 -1117 -652
-1154 -651 -20 1 -209 89 -514 242 l-483 241 -94 0 -95 0 0 510 0 510 368 0
367 0 352 -352z"/>
</g>
</svg>
