<svg id="Icons" height="512" fill="#1bb568" viewBox="0 0 74 74" width="512" xmlns="http://www.w3.org/2000/svg"><path d="m68.24 41.19a1 1 0 0 1 -1-1v-2.97a1 1 0 0 1 2 0v2.97a1 1 0 0 1 -1 1z"/><path d="m65.24 72.01h-56a4.005 4.005 0 0 1 -4-4v-62a4 4 0 0 1 4-4h41.77a4.03 4.03 0 0 1 2.827 1.173l14.23 14.23a4.03 4.03 0 0 1 1.173 2.827v9.98a1 1 0 0 1 -2 0v-9.98a2.017 2.017 0 0 0 -.587-1.413l-14.23-14.227a2.017 2.017 0 0 0 -1.413-.59h-41.77a2 2 0 0 0 -2 2v62a2 2 0 0 0 2 2h56a2 2 0 0 0 2-2v-10.92a1 1 0 0 1 2 0v10.92a4 4 0 0 1 -4 4z"/><path d="m68.24 51.09a1 1 0 0 1 -1-1v-2.9a1 1 0 0 1 2 0v2.9a1 1 0 0 1 -1 1z"/><path d="m45.239 15.008h-29.489a1 1 0 0 1 -1-1v-10.992a1 1 0 0 1 1-1h29.489a1 1 0 0 1 1 1v10.992a1 1 0 0 1 -1 1zm-28.489-2h27.489v-8.992h-27.489z"/><path d="m39.625 11.008a1 1 0 0 1 -1-1v-2.992a1 1 0 1 1 2 0v2.992a1 1 0 0 1 -1 1z"/><path d="m59.739 72h-45a1 1 0 0 1 -1-1v-29a3 3 0 0 1 3-3h41a3 3 0 0 1 3 3v29a1 1 0 0 1 -1 1zm-44-2h43v-28a1 1 0 0 0 -1-1h-41a1 1 0 0 0 -1 1z"/><path d="m52.74 48.75h-31a1 1 0 1 1 0-2h31a1 1 0 1 1 0 2z"/><path d="m52.74 56.5h-31a1 1 0 1 1 0-2h31a1 1 0 1 1 0 2z"/><path d="m52.74 64.25h-31a1 1 0 1 1 0-2h31a1 1 0 1 1 0 2z"/></svg>