<?xml version="1.0" standalone="no"?>
<!DOCTYPE svg PUBLIC "-//W3C//DTD SVG 20010904//EN"
 "http://www.w3.org/TR/2001/REC-SVG-20010904/DTD/svg10.dtd">
<svg version="1.0" xmlns="http://www.w3.org/2000/svg"
 width="512.000000pt" height="512.000000pt" viewBox="0 0 512.000000 512.000000"
 preserveAspectRatio="xMidYMid meet">

<g transform="translate(0.000000,512.000000) scale(0.100000,-0.100000)"
fill="#808080" stroke="none">
<path d="M44 4128 c-12 -5 -27 -21 -33 -34 -16 -35 -16 -3033 0 -3067 6 -14
22 -30 36 -36 34 -16 4992 -16 5026 0 14 6 30 22 36 36 16 34 16 3032 0 3066
-6 14 -22 30 -36 36 -33 15 -4998 14 -5029 -1z m4916 -1568 l0 -1420 -2400 0
-2400 0 0 1420 0 1420 2400 0 2400 0 0 -1420z"/>
<path d="M1177 3521 c-87 -24 -166 -72 -231 -141 -66 -72 -103 -147 -123 -249
-15 -74 -15 -88 0 -161 21 -109 60 -183 137 -261 70 -70 137 -109 235 -134
249 -64 512 101 580 362 66 255 -96 519 -362 588 -75 20 -152 18 -236 -4z
m264 -177 c187 -84 246 -324 121 -489 -120 -159 -349 -175 -489 -35 -128 127
-128 333 0 460 100 100 235 124 368 64z"/>
<path d="M2165 3515 c-16 -15 -25 -36 -25 -55 0 -19 9 -40 25 -55 l24 -25
1126 0 c702 0 1133 4 1144 10 10 5 24 23 31 40 16 38 0 82 -36 99 -18 8 -334
11 -1145 11 l-1120 0 -24 -25z"/>
<path d="M3401 2609 c-53 -21 -66 -77 -30 -123 l20 -26 530 0 530 0 24 25 c32
31 32 66 1 102 l-24 28 -514 2 c-316 1 -522 -2 -537 -8z"/>
<path d="M970 2341 c-133 -37 -239 -125 -297 -247 -43 -91 -55 -171 -51 -340
3 -129 4 -137 27 -155 32 -26 77 -24 106 6 24 23 25 29 25 167 0 89 5 162 14
194 27 103 112 191 213 220 42 12 103 15 320 12 263 -3 269 -3 317 -28 68 -35
123 -92 154 -158 24 -52 26 -71 30 -225 4 -165 5 -168 30 -187 52 -41 115 -13
128 57 4 20 4 100 1 177 -8 201 -42 291 -149 393 -62 58 -132 96 -215 118 -90
24 -564 20 -653 -4z"/>
<path d="M3395 2168 c-51 -29 -60 -84 -20 -123 l24 -25 526 0 526 0 24 25 c33
33 32 70 -4 106 l-29 29 -514 0 c-367 -1 -519 -4 -533 -12z"/>
<path d="M2800 1733 c-54 -20 -69 -92 -27 -131 l23 -22 825 0 c899 0 859 -3
873 56 9 36 -9 79 -40 93 -18 8 -252 11 -832 10 -444 0 -814 -3 -822 -6z"/>
</g>
</svg>
