<?xml version="1.0" standalone="no"?>
<!DOCTYPE svg PUBLIC "-//W3C//DTD SVG 20010904//EN"
 "http://www.w3.org/TR/2001/REC-SVG-20010904/DTD/svg10.dtd">
<svg version="1.0" xmlns="http://www.w3.org/2000/svg"
 width="512.000000pt" height="512.000000pt" viewBox="0 0 512.000000 512.000000"
 preserveAspectRatio="xMidYMid meet">

<g transform="translate(0.000000,512.000000) scale(0.100000,-0.100000)"
fill="#808080" stroke="none">
<path d="M865 3989 c-124 -43 -208 -119 -267 -245 l-33 -69 0 -1115 0 -1115
33 -69 c60 -127 143 -203 270 -245 61 -21 68 -21 1692 -21 1624 0 1631 0 1692
21 127 42 210 118 270 245 l33 69 0 1115 0 1115 -33 69 c-60 127 -143 203
-270 245 -61 21 -67 21 -1694 21 -1619 -1 -1634 -1 -1693 -21z m3351 -156 c66
-22 145 -101 167 -167 16 -45 17 -144 17 -1106 0 -1202 6 -1115 -84 -1206 -92
-92 67 -84 -1756 -84 -1823 0 -1664 -8 -1756 84 -90 91 -84 4 -84 1206 0 1203
-6 1115 85 1206 90 90 -69 82 1751 83 1482 1 1614 0 1660 -16z"/>
<path d="M999 3591 c-35 -35 -37 -71 -6 -104 12 -14 363 -267 781 -562 560
-397 766 -538 786 -538 20 0 225 141 789 542 419 299 770 555 781 568 27 34
25 69 -5 98 -29 30 -80 33 -109 6 -12 -10 -344 -248 -738 -529 l-717 -512
-703 502 c-768 548 -783 558 -811 558 -10 0 -32 -13 -48 -29z"/>
</g>
</svg>
