<?xml version="1.0" standalone="no"?>
<!DOCTYPE svg PUBLIC "-//W3C//DTD SVG 20010904//EN"
 "http://www.w3.org/TR/2001/REC-SVG-20010904/DTD/svg10.dtd">
<svg version="1.0" xmlns="http://www.w3.org/2000/svg"
 width="512.000000pt" height="512.000000pt" viewBox="0 0 512.000000 512.000000"
 preserveAspectRatio="xMidYMid meet">

<g transform="translate(0.000000,512.000000) scale(0.100000,-0.100000)"
fill="#fff" stroke="none">
<path d="M1163 4706 l-28 -24 0 -600 0 -600 24 -26 c39 -42 101 -34 126 15 13
24 15 119 15 614 l0 587 -29 29 c-36 36 -70 37 -108 5z"/>
<path d="M3273 4660 c-364 -27 -711 -112 -871 -214 -72 -45 -124 -98 -148
-151 l-24 -50 0 -591 0 -592 -69 28 c-166 68 -410 108 -581 95 -593 -42 -1070
-411 -1255 -969 -53 -160 -68 -278 -62 -474 8 -237 42 -374 143 -580 43 -87
63 -116 86 -128 53 -28 118 8 118 65 0 16 -20 66 -44 112 -53 100 -99 228
-123 341 -24 115 -24 362 1 476 54 251 161 450 340 628 241 241 535 364 871
364 599 0 1103 -422 1216 -1020 20 -101 17 -349 -5 -450 -74 -344 -274 -630
-567 -813 -375 -233 -884 -240 -1260 -17 -37 22 -79 40 -94 40 -38 0 -75 -41
-75 -84 0 -45 39 -78 164 -139 119 -59 213 -92 339 -119 139 -30 408 -32 542
-4 128 27 274 79 391 140 l100 53 58 -29 c137 -69 377 -131 641 -164 172 -22
659 -26 830 -6 488 56 803 174 895 335 l30 52 0 1733 c0 1729 0 1733 -21 1773
-85 168 -427 299 -904 349 -143 15 -519 20 -662 10z m608 -170 c270 -26 508
-81 655 -149 90 -43 164 -103 164 -134 0 -29 -70 -91 -143 -126 -138 -66 -319
-112 -577 -148 -175 -24 -681 -24 -861 0 -182 24 -320 53 -436 92 -187 62
-283 125 -283 183 0 111 415 252 840 285 106 8 547 6 641 -3z m-1255 -619
c570 -190 1562 -158 2005 64 l69 34 0 -224 0 -223 -26 -31 c-56 -67 -253 -149
-459 -190 -229 -46 -336 -55 -660 -56 -307 0 -387 6 -597 41 -91 16 -99 16
-123 0 -57 -37 -52 -116 9 -141 63 -26 322 -57 586 -70 237 -12 642 23 869 76
120 27 254 73 334 113 l67 34 0 -559 0 -558 -30 -34 c-77 -89 -309 -169 -625
-217 -191 -30 -646 -38 -847 -17 -75 8 -142 18 -147 22 -6 3 -11 21 -11 38 0
81 -67 303 -129 425 -17 34 -28 62 -24 62 5 0 46 -7 93 -15 163 -27 327 -38
570 -38 252 0 403 11 595 43 94 16 113 23 132 45 28 32 29 74 3 102 -28 31
-53 36 -113 24 -135 -28 -293 -42 -527 -48 -329 -7 -568 13 -807 68 l-82 19
-93 96 c-51 53 -130 123 -175 156 l-83 60 0 498 0 498 53 -29 c29 -15 107 -46
173 -68z m2042 -2399 c-86 -89 -329 -171 -653 -219 -174 -26 -745 -26 -925 0
-68 10 -126 19 -128 21 -2 2 8 40 21 83 34 108 57 222 64 322 l6 83 51 -5 c28
-3 140 -12 248 -18 474 -30 1033 50 1283 184 l60 32 3 -224 2 -225 -32 -34z
m32 -416 c0 -221 0 -223 -24 -249 -77 -83 -291 -162 -556 -206 -173 -29 -190
-31 -396 -40 -404 -19 -824 28 -1081 121 -46 16 -83 32 -83 34 0 2 35 38 79
81 81 81 188 218 222 286 18 33 24 38 47 33 15 -3 72 -12 127 -20 551 -81
1273 -12 1592 153 32 17 61 30 66 31 4 0 7 -101 7 -224z"/>
<path d="M2505 3365 c-33 -32 -34 -84 -2 -112 26 -24 127 -63 163 -63 35 0 74
42 74 79 0 42 -35 75 -106 100 -78 27 -99 27 -129 -4z"/>
<path d="M4446 2692 c-57 -21 -71 -31 -82 -58 -16 -39 -7 -74 28 -98 30 -21
56 -20 122 5 71 26 94 46 102 86 5 27 1 37 -24 63 -37 36 -56 37 -146 2z"/>
<path d="M472 4557 c-21 -22 -22 -32 -22 -201 0 -175 0 -177 25 -201 34 -35
86 -34 114 1 19 25 21 40 21 204 0 172 -1 177 -23 198 -32 30 -87 29 -115 -1z"/>
<path d="M1841 4444 c-15 -19 -21 -41 -21 -76 0 -41 5 -54 29 -79 33 -33 50
-35 90 -14 35 18 41 32 41 99 0 42 -5 57 -23 74 -34 32 -89 30 -116 -4z"/>
<path d="M1845 4135 l-25 -24 0 -316 0 -316 25 -24 c30 -31 73 -32 109 -4 l26
20 0 324 0 324 -26 20 c-36 28 -79 27 -109 -4z"/>
<path d="M515 3952 c-11 -2 -30 -13 -42 -25 l-23 -20 0 -379 0 -379 25 -24
c15 -16 36 -25 55 -25 19 0 40 9 55 25 l25 24 0 379 0 379 -22 20 c-28 24 -46
31 -73 25z"/>
<path d="M1609 2597 c-29 -22 -39 -55 -39 -129 l0 -74 -60 -18 c-114 -34 -223
-136 -252 -235 -18 -63 -14 -150 11 -205 31 -72 110 -148 191 -185 55 -26 91
-35 172 -42 169 -16 256 -73 265 -177 8 -80 -53 -146 -166 -178 -65 -19 -130
-14 -198 16 -81 36 -114 77 -127 161 -8 47 -38 73 -82 73 -116 0 -101 -189 25
-307 54 -51 128 -92 184 -102 l37 -7 0 -75 c0 -105 23 -143 85 -143 62 0 85
38 85 143 l0 75 33 6 c91 17 204 99 253 181 72 124 42 283 -74 387 -73 66
-184 108 -287 108 -107 0 -215 57 -245 130 -16 39 -8 101 20 139 66 94 253
122 366 56 54 -32 82 -71 93 -132 16 -84 82 -117 138 -69 24 21 28 31 27 75
-4 132 -116 261 -266 307 l-58 18 0 77 c0 69 -3 81 -26 108 -28 33 -75 41
-105 18z"/>
<path d="M628 970 c-51 -39 -39 -100 31 -162 50 -46 90 -50 126 -13 42 41 34
79 -28 142 -60 59 -88 66 -129 33z"/>
</g>
</svg>
