<?xml version="1.0" standalone="no"?>
<!DOCTYPE svg PUBLIC "-//W3C//DTD SVG 20010904//EN"
 "http://www.w3.org/TR/2001/REC-SVG-20010904/DTD/svg10.dtd">
<svg version="1.0" xmlns="http://www.w3.org/2000/svg"
 width="512.000000pt" height="512.000000pt" viewBox="0 0 512.000000 512.000000"
 preserveAspectRatio="xMidYMid meet">

<g transform="translate(0.000000,512.000000) scale(0.100000,-0.100000)"
fill="#db2525" stroke="none">
<path d="M2384 5110 c-383 -26 -797 -153 -1112 -341 -692 -414 -1133 -1075
-1248 -1874 -24 -165 -24 -505 0 -670 68 -469 254 -906 540 -1264 410 -513
1011 -849 1676 -937 167 -22 473 -22 640 0 1161 154 2047 1034 2216 2201 24
165 24 505 0 670 -68 469 -254 906 -540 1264 -517 648 -1337 1007 -2172 951z
m456 -1695 l0 -575 575 0 575 0 0 -280 0 -280 -575 0 -575 0 0 -575 0 -575
-280 0 -280 0 0 575 0 575 -575 0 -575 0 0 280 0 280 575 0 575 0 0 575 0 575
280 0 280 0 0 -575z"/>
</g>
</svg>
