<?xml version="1.0" standalone="no"?>
<!DOCTYPE svg PUBLIC "-//W3C//DTD SVG 20010904//EN"
 "http://www.w3.org/TR/2001/REC-SVG-20010904/DTD/svg10.dtd">
<svg version="1.0" xmlns="http://www.w3.org/2000/svg"
 width="512.000000pt" height="512.000000pt" viewBox="0 0 512.000000 512.000000"
 preserveAspectRatio="xMidYMid meet">

<g transform="translate(0.000000,512.000000) scale(0.100000,-0.100000)"
fill="#fff" stroke="none">
<path d="M345 4031 c-187 -84 -155 -357 46 -400 72 -16 4288 -15 4360 0 91 20
169 115 169 208 0 75 -52 156 -123 190 l-43 21 -2185 0 c-2091 0 -2186 -1
-2224 -19z"/>
<path d="M319 2742 c-76 -39 -114 -103 -114 -186 1 -86 41 -151 120 -194 28
-16 202 -17 2210 -20 1602 -2 2191 0 2221 9 163 44 208 254 80 367 -20 17 -52
36 -73 41 -26 8 -727 11 -2214 11 l-2177 0 -53 -28z"/>
<path d="M357 1477 c-187 -59 -197 -325 -15 -401 33 -14 268 -16 2209 -16
1689 0 2181 3 2213 12 57 17 119 82 135 141 27 95 -13 195 -97 244 l-47 28
-2180 2 c-1649 1 -2189 -1 -2218 -10z"/>
</g>
</svg>
