<svg id="Capa_1" enable-background="new 0 0 512 512" height="512" viewBox="0 0 512 512" fill="#1ca77f" width="512" xmlns="http://www.w3.org/2000/svg"><g><path d="m502 396h-30v-250c0-5.523-4.477-10-10-10h-79.485c-13.719-57.924-65.652-100-126.515-100-60.953 0-112.818 42.165-126.515 100h-79.485c-5.523 0-10 4.477-10 10v250h-30c-5.523 0-10 4.477-10 10 0 38.598 31.402 70 70 70h141c5.523 0 10-4.477 10-10s-4.477-10-10-10h-141c-24.146 0-44.349-17.206-48.996-40h170.854l17.071 17.071c1.875 1.875 4.419 2.929 7.071 2.929h80c2.652 0 5.196-1.054 7.071-2.929l17.071-17.081h170.854c-4.647 22.804-24.85 40.01-48.996 40.01h-141c-5.523 0-10 4.477-10 10s4.477 10 10 10h141c38.598 0 70-31.402 70-70 0-5.523-4.477-10-10-10zm-126-100h-30v-80h30c5.514 0 10 4.486 10 10v60c0 5.514-4.486 10-10 10zm-120-240c49.911 0 92.671 33.006 105.849 80h-211.698c13.178-46.994 55.938-80 105.849-80zm-120 160h30v80h-30c-5.514 0-10-4.486-10-10v-60c0-5.514 4.486-10 10-10zm180 180c-2.652 0-5.196 1.054-7.071 2.929l-17.071 17.071h-71.716l-17.071-17.071c-1.875-1.875-4.419-2.929-7.071-2.929h-136v-240.01h66.397c-.254 3.337-.397 6.676-.397 10.01v31.72c-11.639 4.128-20 15.243-20 28.28v60c0 16.542 13.458 30 30 30h40c5.523 0 10-4.477 10-10v-100c0-5.523-4.477-10-10-10h-30v-30c0-3.337.164-6.678.463-10h219.073c.299 3.322.463 6.663.463 10v30h-30c-5.523 0-10 4.477-10 10v100c0 5.523 4.477 10 10 10h30v10c0 5.514-4.486 10-10 10h-51.72c-4.128-11.639-15.243-20-28.28-20h-40c-16.542 0-30 13.458-30 30s13.458 30 30 30h40c13.036 0 24.152-8.361 28.28-20h51.721c16.542 0 30-13.458 30-30v-11.72c11.639-4.128 20-15.243 20-28.28v-60c0-13.036-8.361-24.152-20-28.28v-31.72c0-3.334-.143-6.673-.397-10h66.397v240zm-30-50c0 5.514-4.486 10-10 10h-40c-5.514 0-10-4.486-10-10s4.486-10 10-10h40c5.514 0 10 4.486 10 10z"/><circle cx="256" cy="466" r="10"/></g></svg>