<?xml version="1.0" encoding="iso-8859-1"?>
<!-- Generator: Adobe Illustrator 21.0.0, SVG Export Plug-In . SVG Version: 6.00 Build 0)  -->
<svg fill="white" version="1.1" id="Capa_1" xmlns="http://www.w3.org/2000/svg" xmlns:xlink="http://www.w3.org/1999/xlink" x="0px" y="0px"
	 viewBox="0 0 512 512" style="enable-background:new 0 0 512 512;" xml:space="preserve">
<g>
	<g>
		<polygon points="419.214,358.667 397.568,399.066 382.751,384.249 361.538,405.462 404.93,448.854 445.657,372.834 		"/>
	</g>
</g>
<g>
	<g>
		<path d="M256,1.189L0,93.394v323.081l256.001,92.205l74.382-26.799c19.308,17.94,45.158,28.93,73.53,28.93
			c58.533,0,106.347-46.753,108.071-104.876L512,93.394L256,1.189z M256,33.076l196.831,70.893l-72.299,26.169L183.608,59.15
			L256,33.076z M241,471.39L30,395.394V125.316l211,76.373V471.39z M256,175.214L59.169,103.969l80.188-28.881l197.034,71.028
			L256,175.214z M482,404.149c-0.785,42.403-35.499,76.662-78.087,76.662c-43.078,0-78.124-35.046-78.124-78.124
			s35.046-78.125,78.124-78.125c42.588,0,77.302,34.259,78.087,76.662V404.149z M482,327.974
			c-19.697-20.578-47.42-33.412-78.087-33.412c-59.62,0-108.124,48.504-108.124,108.125c0,19.844,5.379,38.454,14.748,54.457
			L271,471.388V201.689l211-76.373V327.974z"/>
	</g>
</g>
<g>
</g>
<g>
</g>
<g>
</g>
<g>
</g>
<g>
</g>
<g>
</g>
<g>
</g>
<g>
</g>
<g>
</g>
<g>
</g>
<g>
</g>
<g>
</g>
<g>
</g>
<g>
</g>
<g>
</g>
</svg>
