<?xml version="1.0" standalone="no"?>
<!DOCTYPE svg PUBLIC "-//W3C//DTD SVG 20010904//EN"
 "http://www.w3.org/TR/2001/REC-SVG-20010904/DTD/svg10.dtd">
<svg version="1.0" xmlns="http://www.w3.org/2000/svg"
 width="512.000000pt" height="512.000000pt" viewBox="0 0 512.000000 512.000000"
 preserveAspectRatio="xMidYMid meet">

<g transform="translate(0.000000,512.000000) scale(0.100000,-0.100000)"
fill="#fff" stroke="none">
<path d="M2406 4950 c-101 -16 -207 -49 -303 -95 -656 -310 -932 -1185 -601
-1904 126 -274 371 -521 626 -631 158 -68 244 -85 432 -85 136 0 180 4 251 22
454 115 804 506 917 1023 22 100 25 140 25 310 1 165 -3 211 -22 300 -102 479
-398 852 -794 1000 -154 58 -381 83 -531 60z"/>
<path d="M1665 1954 c-269 -35 -480 -111 -695 -252 -113 -75 -327 -289 -402
-402 -164 -250 -249 -515 -252 -785 -1 -113 2 -136 20 -176 31 -66 78 -114
142 -146 l57 -28 2025 0 2025 0 57 28 c64 32 111 80 142 146 29 64 28 261 -4
411 -124 600 -565 1044 -1175 1181 -99 23 -105 23 -1005 25 -498 1 -918 0
-935 -2z"/>
</g>
</svg>
