<?xml version="1.0" standalone="no"?>
<!DOCTYPE svg PUBLIC "-//W3C//DTD SVG 20010904//EN"
 "http://www.w3.org/TR/2001/REC-SVG-20010904/DTD/svg10.dtd">
<svg version="1.0" xmlns="http://www.w3.org/2000/svg"
 width="512.000000pt" height="512.000000pt" viewBox="0 0 512.000000 512.000000"
 preserveAspectRatio="xMidYMid meet">

<g transform="translate(0.000000,512.000000) scale(0.100000,-0.100000)"
fill="#808080" stroke="none">
<path d="M2580 5111 c-48 -15 -87 -40 -122 -79 -61 -67 -66 -103 -42 -299 6
-45 2 -61 -20 -107 -34 -69 -182 -228 -239 -255 -24 -11 -94 -32 -157 -46 -63
-14 -138 -37 -167 -50 -110 -54 -223 -216 -284 -410 -12 -38 -24 -71 -25 -73
-1 -2 -44 39 -96 90 -181 183 -312 204 -469 75 -147 -122 -199 -275 -136 -402
10 -22 28 -50 39 -62 19 -20 19 -26 8 -73 -32 -132 17 -228 150 -299 83 -44
154 -105 239 -204 76 -89 94 -101 146 -99 41 1 85 51 85 96 0 76 -224 308
-368 380 -29 15 -55 33 -58 40 -3 8 2 41 10 74 26 97 22 126 -23 175 -57 63
-64 80 -48 119 17 40 119 138 144 138 31 0 75 -34 168 -130 112 -115 164 -150
222 -150 94 0 137 48 192 211 62 185 124 289 192 324 15 8 79 26 143 39 158
34 231 71 327 168 94 95 164 186 197 258 29 61 35 159 18 277 -8 62 -8 62 19
75 27 12 30 10 92 -55 87 -92 170 -207 255 -350 75 -127 121 -185 171 -216 82
-50 219 -75 482 -91 104 -6 191 -13 193 -14 2 -2 -4 -27 -14 -55 -16 -51 -16
-156 1 -208 l7 -23 -103 6 c-125 8 -166 -2 -236 -55 -36 -27 -73 -44 -122 -56
-109 -26 -170 -80 -255 -222 l-37 -63 -67 52 c-132 101 -274 151 -432 151
-268 0 -506 -151 -625 -398 -82 -168 -94 -331 -40 -521 95 -327 434 -745 641
-788 41 -9 114 17 184 64 106 73 290 284 367 420 15 28 31 50 35 50 10 0 71
-78 107 -136 17 -28 48 -63 69 -77 71 -49 198 -59 303 -23 24 8 44 14 46 13 1
-2 -3 -46 -9 -99 -14 -117 -2 -170 48 -219 32 -31 37 -33 144 -40 61 -5 115
-11 120 -14 6 -3 19 -28 31 -55 14 -32 40 -65 74 -95 96 -81 96 -157 0 -499
-86 -305 -90 -357 -38 -480 23 -55 25 -69 19 -146 -4 -47 -10 -129 -15 -183
-8 -104 -14 -117 -61 -117 -59 0 -110 -55 -124 -132 -8 -44 -13 -45 -69 -17
-69 36 -122 75 -217 164 -107 100 -177 143 -366 225 -113 49 -153 73 -210 121
-38 33 -140 106 -227 161 -204 129 -288 197 -337 270 -40 61 -45 77 -54 185
-7 84 -41 154 -145 302 -116 166 -134 200 -166 305 -37 122 -92 250 -117 272
-13 13 -35 19 -65 19 -37 0 -49 -5 -69 -28 -33 -39 -31 -80 10 -180 19 -45 40
-105 47 -132 21 -88 86 -214 179 -346 108 -152 129 -197 130 -265 1 -176 118
-333 373 -500 72 -48 164 -108 202 -133 39 -25 94 -68 124 -95 36 -32 93 -67
170 -103 271 -127 294 -141 371 -213 105 -99 192 -164 279 -208 66 -32 84 -37
146 -37 96 0 142 29 182 114 24 51 33 61 65 70 93 28 133 102 148 273 26 291
23 353 -22 441 -25 49 -20 92 32 277 89 316 107 425 90 537 -14 90 -43 148
-104 207 -27 27 -60 70 -72 96 -38 82 -108 120 -246 134 l-68 8 5 36 c31 208
20 282 -50 328 -46 30 -95 29 -181 -6 -43 -17 -102 -34 -130 -37 l-52 -6 -43
64 c-23 35 -71 95 -105 135 l-62 71 20 69 c10 38 22 114 24 169 5 85 2 113
-19 190 -13 50 -30 104 -37 121 -13 29 -11 36 38 120 86 151 103 170 164 184
60 14 137 50 185 86 32 24 35 24 180 18 134 -5 151 -4 183 14 73 40 95 112 65
212 -33 109 -31 127 19 223 25 48 46 97 46 110 0 40 -42 91 -85 105 -23 8
-148 20 -291 28 -138 7 -286 20 -329 29 -129 24 -139 33 -228 180 -113 187
-179 275 -292 391 -78 80 -109 105 -140 113 -45 12 -98 13 -135 2z m123 -1618
c159 -43 310 -209 346 -381 39 -189 -43 -419 -245 -678 -72 -93 -196 -212
-230 -220 -53 -13 -205 136 -329 321 -78 117 -119 197 -157 311 -32 97 -31
243 2 329 51 133 141 233 263 291 114 54 218 62 350 27z"/>
<path d="M2467 3296 c-213 -79 -274 -339 -117 -496 144 -144 387 -104 476 77
38 77 41 194 6 260 -57 108 -141 164 -257 170 -44 2 -84 -2 -108 -11z m142
-200 c30 -16 51 -53 51 -92 0 -38 -59 -94 -100 -94 -43 0 -100 56 -100 97 1
79 78 125 149 89z"/>
<path d="M1624 2639 c-47 -13 -69 -44 -69 -96 0 -37 5 -49 28 -69 41 -35 99
-33 138 5 70 71 0 185 -97 160z"/>
</g>
</svg>
