<svg id="_x31_" enable-background="new 0 0 24 24" height="512" viewBox="0 0 24 24" width="512" xmlns="http://www.w3.org/2000/svg"><g><path d="m18.5 24h-13c-1.379 0-2.5-1.121-2.5-2.5v-19c0-1.378 1.121-2.5 2.5-2.5h13c1.379 0 2.5 1.122 2.5 2.5v19c0 1.379-1.121 2.5-2.5 2.5zm-13-23c-.827 0-1.5.673-1.5 1.5v19c0 .827.673 1.5 1.5 1.5h13c.827 0 1.5-.673 1.5-1.5v-19c0-.827-.673-1.5-1.5-1.5z"/></g><g><path d="m12 16c-1.379 0-2.5-1.121-2.5-2.5 0-1.378 1.121-2.5 2.5-2.5s2.5 1.122 2.5 2.5c0 1.379-1.121 2.5-2.5 2.5zm0-4c-.827 0-1.5.673-1.5 1.5s.673 1.5 1.5 1.5 1.5-.673 1.5-1.5-.673-1.5-1.5-1.5z"/></g><g><path d="m16.5 18h-9c-.827 0-1.5-.673-1.5-1.5v-5c0-.827.673-1.5 1.5-1.5h1c.156 0 .306-.075.399-.2l.901-1.2c.282-.376.73-.6 1.2-.6h2c.47 0 .918.224 1.2.6l.9 1.2c.094.125.244.2.4.2h1c.827 0 1.5.673 1.5 1.5v5c0 .827-.673 1.5-1.5 1.5zm-9-7c-.275 0-.5.224-.5.5v5c0 .275.225.5.5.5h9c.275 0 .5-.225.5-.5v-5c0-.276-.225-.5-.5-.5h-1c-.47 0-.918-.224-1.2-.6l-.9-1.2c-.094-.125-.244-.2-.4-.2h-2c-.156 0-.306.075-.399.2l-.901 1.2c-.282.376-.73.6-1.2.6z"/></g></svg>