<?xml version="1.0" standalone="no"?>
<!DOCTYPE svg PUBLIC "-//W3C//DTD SVG 20010904//EN"
 "http://www.w3.org/TR/2001/REC-SVG-20010904/DTD/svg10.dtd">
<svg version="1.0" xmlns="http://www.w3.org/2000/svg"
 width="512.000000pt" height="512.000000pt" viewBox="0 0 512.000000 512.000000"
 preserveAspectRatio="xMidYMid meet">

<g transform="translate(0.000000,512.000000) scale(0.100000,-0.100000)"
fill="#fff" stroke="none">
<path d="M716 5099 c-17 -13 -31 -40 -42 -77 -34 -123 -47 -154 -86 -203 -22
-28 -67 -68 -101 -89 -94 -59 -114 -77 -120 -107 -9 -50 16 -88 82 -123 118
-63 192 -164 221 -299 17 -80 45 -111 100 -111 58 0 83 28 105 120 10 41 28
95 40 120 29 57 116 140 183 174 58 30 87 72 77 114 -9 39 -23 54 -90 92 -118
67 -178 148 -211 287 -26 110 -93 153 -158 102z m75 -311 c7 -18 49 -68 92
-112 l78 -78 -23 -16 c-38 -25 -122 -116 -143 -155 -11 -20 -22 -37 -25 -37
-3 1 -21 26 -40 56 -34 55 -97 120 -135 142 -18 9 -13 16 51 75 39 36 81 86
95 111 13 25 27 46 30 46 4 0 13 -15 20 -32z"/>
<path d="M4391 4363 c-17 -18 -31 -48 -40 -86 -16 -74 -60 -132 -133 -175 -42
-25 -60 -42 -68 -66 -16 -51 0 -79 77 -128 72 -47 113 -104 128 -178 18 -86
66 -122 129 -96 34 14 44 31 71 129 18 65 67 122 135 157 28 14 46 33 56 55
21 51 4 88 -60 124 -75 42 -112 88 -137 174 -33 114 -97 151 -158 90z m108
-304 l44 -49 -44 -47 c-24 -27 -47 -48 -51 -48 -3 0 -25 22 -48 48 l-42 48 43
48 c24 27 46 49 49 49 3 0 25 -22 49 -49z"/>
<path d="M1160 4018 c-43 -29 -243 -369 -243 -412 0 -19 9 -37 27 -53 57 -49
84 -28 177 132 47 83 75 123 82 116 5 -5 127 -214 271 -463 l262 -453 -535 -3
c-294 -1 -536 -1 -538 1 -2 2 48 94 112 203 126 218 135 247 89 283 -34 27
-57 26 -88 -1 -34 -31 -307 -504 -313 -544 -3 -19 1 -45 9 -61 14 -29 1899
-2149 1979 -2225 32 -32 45 -38 83 -38 24 0 51 3 60 6 17 7 1994 2213 2013
2247 29 52 17 86 -90 273 -57 98 -201 350 -322 559 -120 209 -228 391 -239
403 -49 55 31 52 -1419 52 l-1344 0 -33 -22z m1223 -176 c-16 -26 -136 -236
-268 -465 -132 -229 -242 -417 -245 -417 -4 0 -258 437 -513 882 l-27 48 540
0 540 0 -27 -48z m1367 44 c0 -17 -535 -925 -541 -919 -10 10 -529 910 -529
918 0 3 241 5 535 5 294 0 535 -2 535 -4z m-935 -541 l266 -460 -29 -12 c-80
-33 -54 -143 34 -143 22 0 25 -3 21 -22 -28 -108 -563 -1908 -567 -1908 -3 0
-131 429 -284 952 -153 524 -281 959 -284 966 -3 9 76 12 377 12 368 0 382 1
401 20 30 30 30 73 -1 105 -19 19 -36 20 -383 25 l-363 5 266 462 c146 254
269 461 273 460 4 -1 127 -209 273 -462z m1349 -8 l264 -457 -539 0 c-296 0
-539 2 -539 4 0 3 120 212 266 466 157 272 270 458 276 452 5 -5 127 -214 272
-465z m-2127 -1372 c122 -418 245 -836 272 -929 l50 -169 -33 34 c-58 60
-1626 1819 -1626 1824 0 3 251 4 557 3 l557 -3 223 -760z m2326 733 c-16 -18
-376 -420 -798 -893 -422 -473 -785 -878 -807 -900 -38 -40 -39 -40 -29 -10 6
17 121 406 256 865 135 459 255 865 266 903 l20 67 561 0 562 0 -31 -32z"/>
<path d="M3818 1359 c-26 -15 -38 -41 -69 -162 -31 -118 -66 -188 -129 -260
-41 -47 -144 -120 -213 -152 -64 -30 -87 -107 -46 -158 11 -15 52 -43 92 -64
97 -51 203 -156 245 -243 18 -36 43 -110 57 -165 21 -81 32 -106 57 -129 26
-24 37 -27 71 -23 60 8 76 31 108 156 15 62 43 139 61 173 46 86 137 173 242
232 71 40 92 57 103 84 12 30 13 40 1 71 -14 36 -21 42 -140 112 -78 46 -100
48 -134 14 -40 -40 -30 -81 28 -124 l46 -35 -56 -39 c-109 -75 -198 -179 -245
-287 l-24 -53 -38 77 c-43 88 -143 202 -230 261 -30 21 -55 39 -55 41 0 1 29
23 64 48 89 64 169 155 218 251 l41 81 24 -24 c32 -31 79 -27 107 11 l20 27
-29 117 c-33 139 -58 173 -122 173 -21 0 -46 -5 -55 -11z"/>
</g>
</svg>
