<?xml version="1.0" standalone="no"?>
<!DOCTYPE svg PUBLIC "-//W3C//DTD SVG 20010904//EN"
 "http://www.w3.org/TR/2001/REC-SVG-20010904/DTD/svg10.dtd">
<svg version="1.0" xmlns="http://www.w3.org/2000/svg"
 width="512.000000pt" height="512.000000pt" viewBox="0 0 512.000000 512.000000"
 preserveAspectRatio="xMidYMid meet">

<g transform="translate(0.000000,512.000000) scale(0.100000,-0.100000)"
fill="#fff" stroke="none">
<path d="M2380 5114 c-19 -2 -78 -9 -130 -14 -330 -36 -695 -160 -990 -336
-375 -224 -680 -529 -904 -904 -175 -292 -291 -632 -338 -990 -16 -123 -16
-497 0 -620 82 -623 356 -1150 820 -1581 256 -239 575 -425 922 -539 274 -91
491 -124 800 -124 228 0 329 9 530 50 689 141 1304 583 1674 1204 175 292 291
632 338 990 16 123 16 497 0 620 -47 358 -163 698 -338 990 -224 375 -529 680
-904 904 -289 173 -634 291 -980 336 -88 12 -438 21 -500 14z m523 -169 c537
-84 981 -308 1357 -685 339 -338 555 -733 654 -1195 42 -193 51 -281 51 -505
0 -224 -9 -312 -51 -505 -99 -462 -315 -857 -654 -1195 -384 -385 -837 -609
-1395 -691 -118 -18 -492 -18 -610 0 -558 82 -1011 306 -1395 691 -385 384
-609 837 -691 1395 -18 118 -18 492 0 610 82 558 306 1011 691 1395 252 253
543 441 860 557 217 80 373 114 660 147 75 9 430 -4 523 -19z"/>
<path d="M2415 4514 c-275 -28 -494 -88 -720 -199 -127 -62 -204 -110 -327
-202 -99 -75 -118 -105 -94 -151 30 -58 76 -55 158 11 456 370 1077 490 1648
320 113 -34 277 -104 372 -160 43 -25 80 -48 82 -52 3 -4 -557 -569 -1244
-1256 l-1248 -1248 -24 39 c-104 166 -187 374 -231 579 -42 192 -47 473 -12
670 53 299 186 594 372 823 66 82 69 128 11 158 -46 24 -76 5 -151 -94 -206
-274 -324 -550 -383 -897 -24 -140 -24 -453 0 -590 52 -298 149 -551 296 -775
66 -100 93 -120 137 -101 43 17 2670 2650 2678 2683 10 41 -9 65 -106 128
-299 196 -653 305 -1019 314 -85 2 -173 2 -195 0z"/>
<path d="M4045 3721 c-16 -10 -620 -610 -1342 -1332 -869 -871 -1314 -1323
-1318 -1341 -10 -41 9 -65 108 -130 395 -259 893 -366 1367 -292 561 88 1041
402 1353 886 412 639 402 1502 -24 2135 -66 97 -89 109 -144 74z m83 -258
c260 -440 314 -1008 142 -1498 -179 -509 -594 -928 -1095 -1105 -208 -74 -390
-104 -625 -104 -349 1 -648 85 -934 262 l-39 24 1248 1248 c687 687 1252 1247
1256 1245 3 -3 25 -35 47 -72z"/>
</g>
</svg>
