<svg id="Capa_1" enable-background="new 0 0 512 512" height="512" viewBox="0 0 512 512" width="512" xmlns="http://www.w3.org/2000/svg"><g><path d="m405.513 442.438c2.888 2.968 7.637 3.032 10.605.143l17.026-16.572c3.021-2.94 3.026-7.804 0-10.748l-17.026-16.572c-2.97-2.893-7.718-2.823-10.605.143-2.89 2.969-2.825 7.717.143 10.605l11.505 11.198-11.505 11.198c-2.968 2.888-3.032 7.636-.143 10.605z"/><path d="m312.747 420.145c-4.143 0-7.5 3.357-7.5 7.5s3.357 7.5 7.5 7.5h37.492c4.143 0 7.5-3.357 7.5-7.5s-3.357-7.5-7.5-7.5z"/><path d="m245.524 128.4c11.875 0 23.231 2.761 33.753 8.205 3.676 1.902 8.204.464 10.107-3.215s.465-8.204-3.215-10.107c-12.673-6.558-26.349-9.883-40.646-9.883-48.845 0-88.583 39.737-88.583 88.582s39.738 88.582 88.583 88.582c48.844 0 88.583-39.737 88.583-88.582 0-21.555-7.852-42.337-22.108-58.521-2.738-3.107-7.477-3.406-10.586-.67-3.107 2.738-3.408 7.478-.67 10.586 11.843 13.441 18.364 30.703 18.364 48.604 0 40.573-33.009 73.582-73.583 73.582s-73.583-33.009-73.583-73.582 33.01-73.581 73.584-73.581z"/><path d="m460.959 413.141c4.143 0 7.5-3.357 7.5-7.5v-89.552c0-9.743-7.927-17.67-17.67-17.67h-19.406c10.419-34.907 16.123-68.826 16.123-96.437 0-111.373-90.609-201.982-201.982-201.982s-201.983 90.609-201.983 201.982c0 50.209 18.343 117.795 47.871 176.382 1.318 2.617 3.96 4.127 6.703 4.127 1.135 0 2.287-.259 3.37-.805 3.699-1.864 5.186-6.374 3.322-10.072-28.538-56.624-46.266-121.623-46.266-169.632 0-103.102 83.88-186.982 186.983-186.982 103.102 0 186.982 83.88 186.982 186.982 0 27.319-5.954 61.384-16.797 96.437h-126.294c-9.743 0-17.67 7.927-17.67 17.67v140.606c0 9.744 7.927 17.671 17.67 17.671h17.255c-20.307 15.028-40.809 22.634-61.146 22.634-25.128 0-74.979-12.92-126.507-99.45-2.119-3.56-6.723-4.727-10.281-2.607-3.559 2.12-4.726 6.723-2.606 10.281 41.002 68.855 90.506 106.776 139.394 106.776 28.699 0 57.19-12.662 84.724-37.634h120.541c9.743 0 17.67-7.927 17.67-17.671v-21.068c0-4.143-3.357-7.5-7.5-7.5s-7.5 3.357-7.5 7.5v21.068c0 1.473-1.197 2.671-2.67 2.671h-161.374c-1.473 0-2.67-1.198-2.67-2.671v-140.606c0-1.473 1.197-2.67 2.67-2.67h54.139v39.843c0 6.466 5.26 11.726 11.725 11.726h29.647c6.465 0 11.725-5.26 11.725-11.726v-39.843h54.139c1.473 0 2.67 1.197 2.67 2.67v89.552c-.001 4.142 3.356 7.5 7.499 7.5zm-79.309-63.154h-23.097v-36.568h23.097z"/></g></svg>