<?xml version="1.0"?>
<svg xmlns="http://www.w3.org/2000/svg" fill="white" id="Layer_1" data-name="Layer 1" viewBox="0 0 512 512" width="512" height="512"><title>track shippment location</title><path d="M81,427.633h19.443a41,41,0,0,0,81.114,0H330.443a41,41,0,0,0,81.114,0H431a26.029,26.029,0,0,0,26-26V312.067a6.094,6.094,0,0,0-.105-1.1c0-.019-.006-.039-.01-.058a5.914,5.914,0,0,0-.309-1.043c-.01-.025-.017-.05-.027-.075a6.1,6.1,0,0,0-.515-.977c-.013-.02-.023-.041-.037-.06a5.89,5.89,0,0,0-.763-.932L410.207,262.79c-13.333-13.334-41.165-19.331-56.669-19.331H290.479V159.894a26.029,26.029,0,0,0-26-26h-6.621A77.78,77.78,0,0,0,233.6,72.578c-32.407-30.867-85.135-30.867-117.541,0a77.777,77.777,0,0,0-24.262,61.316H81a26.029,26.029,0,0,0-26,26V401.633A26.029,26.029,0,0,0,81,427.633Zm60,23a29,29,0,1,1,29-29A29.034,29.034,0,0,1,141,450.633Zm230,0a29,29,0,1,1,29-29A29.034,29.034,0,0,1,371,450.633Zm74-49a14.015,14.015,0,0,1-14,14H411.557a41,41,0,0,0-81.114,0H290.479V318.067H445ZM353.538,255.459c15.632,0,38.724,6.355,48.185,15.815l34.793,34.793H290.479V255.459ZM124.333,81.268,120.2,76.923l4.139,4.345c27.841-26.523,73.145-26.523,100.985,0,23.659,22.536,27.479,58.191,9.084,84.779l-59.577,86.114-59.577-86.114C96.854,139.459,100.675,103.8,124.333,81.268ZM67,159.894a14.015,14.015,0,0,1,14-14H93.525a77.144,77.144,0,0,0,11.855,26.981l64.512,93.246a6,6,0,0,0,9.869,0l64.511-93.246a77.144,77.144,0,0,0,11.855-26.981h8.352a14.016,14.016,0,0,1,14,14V415.633H181.557a41,41,0,0,0-81.114,0H81a14.015,14.015,0,0,1-14-14Z"/><path d="M174.826,173.451a44.743,44.743,0,1,0-44.743-44.743A44.793,44.793,0,0,0,174.826,173.451Zm0-77.486a32.743,32.743,0,1,1-32.743,32.743A32.78,32.78,0,0,1,174.826,95.965Z"/></svg>
