<?xml version="1.0" standalone="no"?>
<!DOCTYPE svg PUBLIC "-//W3C//DTD SVG 20010904//EN"
 "http://www.w3.org/TR/2001/REC-SVG-20010904/DTD/svg10.dtd">
<svg version="1.0" xmlns="http://www.w3.org/2000/svg"
 width="512.000000pt" height="512.000000pt" viewBox="0 0 512.000000 512.000000"
 preserveAspectRatio="xMidYMid meet">

<g transform="translate(0.000000,512.000000) scale(0.100000,-0.100000)"
fill="#fff" stroke="none">
<path d="M1996 5109 c-115 -27 -246 -135 -307 -254 -48 -92 -63 -160 -56 -250
l5 -73 -141 -4 c-119 -3 -150 -7 -189 -25 -66 -30 -133 -96 -165 -162 -27 -54
-28 -62 -28 -206 0 -143 1 -153 27 -205 36 -74 101 -135 174 -165 l59 -24 5
-778 5 -778 28 -53 c37 -70 97 -128 166 -161 l56 -26 1010 0 1010 0 58 29
c100 51 165 139 186 251 7 39 11 304 11 789 l0 731 41 13 c97 30 185 124 209
224 7 28 11 100 8 180 -3 116 -6 139 -27 182 -31 63 -86 118 -153 153 -49 25
-64 27 -198 31 l-145 4 0 112 c0 107 -1 114 -36 186 -114 240 -370 351 -574
251 -91 -45 -134 -92 -272 -294 l-121 -178 -118 173 c-65 95 -133 189 -152
210 -92 102 -241 148 -376 117z m192 -221 c25 -17 73 -77 143 -179 58 -85 109
-160 113 -166 6 -10 -55 -13 -289 -13 l-296 0 -15 35 c-49 117 41 289 179 342
48 19 120 10 165 -19z m1116 -2 c112 -66 174 -214 135 -325 l-11 -31 -299 0
-299 0 97 143 c108 159 142 200 193 228 47 26 125 20 184 -15z m632 -598 l34
-38 0 -115 0 -115 -34 -38 -34 -37 -651 -5 -651 -5 -27 -27 c-41 -41 -39 -100
5 -139 l32 -29 550 0 550 0 -2 -747 c-3 -727 -4 -749 -23 -782 -11 -18 -36
-42 -55 -52 -33 -18 -77 -19 -988 -19 -1034 0 -978 -3 -1032 55 l-25 27 -3
759 -2 759 84 0 c97 0 126 10 150 52 24 40 14 89 -25 122 -30 26 -32 26 -207
26 -160 0 -180 2 -210 20 -46 28 -62 73 -62 175 0 102 16 147 62 175 33 20 43
20 1281 18 l1249 -3 34 -37z"/>
<path d="M2135 3929 c-88 -50 -67 -173 31 -186 36 -5 46 -1 75 25 44 39 47 98
8 137 -29 29 -85 41 -114 24z"/>
<path d="M2293 3482 c-108 -39 -180 -110 -224 -222 -45 -114 -24 -281 48 -379
41 -56 463 -461 492 -472 53 -21 78 -3 318 229 211 204 237 232 269 297 68
138 55 303 -34 420 -73 96 -166 145 -278 145 -62 0 -160 -29 -204 -60 l-31
-22 -73 37 c-92 47 -199 57 -283 27z m182 -202 c22 -11 57 -33 77 -51 52 -44
111 -50 158 -15 102 74 112 80 163 84 65 5 109 -22 145 -88 20 -38 23 -55 19
-107 -3 -37 -12 -75 -23 -92 -11 -16 -98 -106 -196 -200 l-176 -171 -191 188
c-167 164 -192 192 -202 232 -14 56 -5 113 26 166 42 71 121 92 200 54z"/>
<path d="M440 3709 c-61 -24 -84 -82 -55 -139 14 -27 50 -48 272 -156 251
-122 292 -136 334 -114 23 13 49 61 49 93 0 50 -37 76 -285 196 -133 65 -253
121 -266 124 -13 3 -35 1 -49 -4z"/>
<path d="M4700 3672 c-58 -27 -178 -86 -268 -131 -141 -71 -165 -86 -177 -114
-7 -18 -11 -44 -8 -60 7 -37 57 -77 97 -77 43 0 527 239 550 271 25 36 20 84
-11 118 -44 48 -66 47 -183 -7z"/>
<path d="M329 3021 c-48 -49 -35 -126 27 -156 29 -14 76 -15 330 -13 l296 3
29 33 c42 47 36 103 -15 144 -19 16 -52 18 -329 18 l-309 0 -29 -29z"/>
<path d="M4282 3025 c-36 -30 -45 -69 -27 -112 25 -60 43 -63 360 -63 304 0
330 4 355 49 20 39 12 91 -19 122 l-29 29 -305 0 -305 0 -30 -25z"/>
<path d="M900 2606 c-109 -42 -490 -238 -509 -262 -25 -32 -27 -64 -6 -104 18
-35 43 -50 84 -50 33 0 528 236 549 263 8 9 16 34 19 55 4 33 1 44 -23 70 -35
38 -68 46 -114 28z"/>
<path d="M4302 2605 c-37 -16 -66 -71 -56 -109 10 -42 46 -65 295 -187 269
-132 291 -138 340 -90 34 35 39 92 11 128 -16 22 -486 257 -533 267 -13 3 -39
-1 -57 -9z"/>
<path d="M1782 1659 c-154 -15 -294 -60 -427 -138 -119 -71 -188 -100 -245
-106 l-55 -6 -30 48 c-38 60 -116 109 -189 118 -28 4 -152 5 -276 3 -249 -4
-267 -8 -339 -73 -21 -19 -49 -59 -62 -88 l-24 -52 0 -525 c0 -513 0 -526 21
-571 25 -53 80 -110 132 -136 33 -16 69 -18 302 -21 298 -3 319 0 393 67 42
37 87 120 87 159 0 26 -7 25 135 12 155 -15 226 -32 710 -174 598 -174 580
-169 715 -170 101 -1 126 3 202 28 148 48 135 40 1079 712 218 156 411 300
428 321 17 21 44 63 58 93 23 47 27 68 28 145 0 82 -3 96 -33 157 -38 77 -92
130 -170 166 -74 34 -177 41 -257 18 -32 -10 -245 -111 -474 -225 -229 -115
-425 -211 -436 -215 -17 -5 -23 2 -38 44 -22 61 -111 161 -171 189 -54 27
-511 162 -639 190 -81 18 -300 44 -332 40 -5 -1 -47 -5 -93 -10z m333 -216
c117 -20 623 -168 654 -191 84 -61 100 -174 36 -250 -31 -37 -83 -62 -127 -62
-19 0 -166 38 -328 85 -162 47 -306 85 -321 85 -34 0 -85 -41 -93 -75 -8 -32
16 -90 44 -105 12 -7 160 -52 329 -102 288 -84 310 -89 381 -85 105 5 184 42
255 118 29 32 57 68 60 80 10 32 980 508 1051 516 62 7 114 -15 147 -61 31
-43 31 -127 0 -177 -17 -26 -187 -153 -632 -470 -336 -239 -645 -453 -688
-476 -107 -57 -188 -77 -283 -70 -83 7 -158 27 -685 181 -198 59 -410 117
-471 131 -88 20 -282 44 -361 45 -10 0 -13 71 -13 323 l0 324 82 12 c89 12
143 35 296 124 199 118 396 147 667 100z m-1282 -74 c12 -7 25 -17 29 -23 4
-6 8 -233 8 -505 0 -446 -2 -496 -17 -513 -15 -16 -36 -18 -248 -18 -212 0
-233 2 -249 18 -15 17 -16 64 -14 523 l3 503 25 13 c33 17 431 18 463 2z"/>
</g>
</svg>
