<?xml version="1.0" standalone="no"?>
<!DOCTYPE svg PUBLIC "-//W3C//DTD SVG 20010904//EN"
 "http://www.w3.org/TR/2001/REC-SVG-20010904/DTD/svg10.dtd">
<svg version="1.0" xmlns="http://www.w3.org/2000/svg"
 width="512.000000pt" height="512.000000pt" viewBox="0 0 512.000000 512.000000"
 preserveAspectRatio="xMidYMid meet">

<g transform="translate(0.000000,512.000000) scale(0.100000,-0.100000)"
fill="#808080" stroke="none">
<path d="M105 5015 l-25 -24 0 -2168 c0 -2418 -5 -2239 72 -2393 73 -145 203
-257 370 -318 l73 -27 1692 -3 c1894 -3 1769 -7 1922 70 146 73 259 204 319
370 l27 73 3 838 3 837 -25 25 -25 25 -536 0 -535 0 0 174 0 174 38 -9 c20 -5
84 -12 142 -15 410 -25 800 199 985 566 72 144 115 312 115 451 0 40 -5 55
-25 74 l-24 25 -456 0 -455 0 0 455 0 456 -26 26 c-25 25 -28 26 -122 19 -54
-3 -114 -10 -134 -15 l-38 -9 0 150 c0 145 -1 150 -25 173 l-24 25 -1631 0
-1631 0 -24 -25z m3175 -255 l0 -120 -80 -40 -80 -40 0 55 c0 46 -4 60 -25 80
l-24 25 -1311 0 -1311 0 -24 -25 -25 -24 0 -549 c0 -526 1 -551 19 -573 l19
-24 1108 -5 1108 -5 8 -44 c31 -181 146 -389 297 -533 92 -89 158 -136 259
-187 l62 -31 0 -1033 c0 -864 3 -1043 15 -1102 19 -91 83 -218 146 -289 l51
-56 -1405 0 c-913 0 -1423 4 -1458 10 -131 25 -266 124 -328 239 -65 123 -61
-38 -61 2283 l0 2108 1520 0 1520 0 0 -120z m-320 -268 c0 -66 -1 -69 -41
-107 -139 -135 -248 -374 -272 -597 l-11 -108 -1038 0 -1038 0 0 440 0 440
1200 0 1200 0 0 -68z m663 -869 c16 -17 53 -18 476 -23 l457 -5 -13 -78 c-38
-225 -184 -443 -386 -575 -345 -225 -805 -176 -1098 117 -344 344 -344 897 1
1241 126 127 294 216 459 244 l76 12 5 -457 c5 -423 6 -460 23 -476z m777
-2211 c0 -631 -2 -757 -15 -805 -45 -173 -178 -307 -350 -352 -251 -65 -513
94 -580 352 -13 48 -15 174 -15 805 l0 748 480 0 480 0 0 -748z"/>
<path d="M425 3335 c-16 -15 -25 -36 -25 -55 0 -19 9 -40 25 -55 l24 -25 1031
0 1031 0 24 25 c33 32 33 78 0 110 l-24 25 -1031 0 -1031 0 -24 -25z"/>
<path d="M425 3015 c-16 -15 -25 -36 -25 -55 0 -19 9 -40 25 -55 l24 -25 1071
0 1071 0 24 25 c16 15 25 36 25 55 0 19 -9 40 -25 55 l-24 25 -1071 0 -1071 0
-24 -25z"/>
<path d="M425 2695 c-16 -15 -25 -36 -25 -55 0 -19 9 -40 25 -55 l24 -25 831
0 831 0 24 25 c33 32 33 78 0 110 l-24 25 -831 0 -831 0 -24 -25z"/>
<path d="M2265 2695 c-16 -15 -25 -36 -25 -55 0 -19 9 -40 25 -55 21 -22 33
-25 95 -25 62 0 74 3 95 25 16 15 25 36 25 55 0 19 -9 40 -25 55 -21 22 -33
25 -95 25 -62 0 -74 -3 -95 -25z"/>
<path d="M425 2375 l-25 -24 0 -351 0 -351 25 -24 24 -25 351 0 351 0 24 25
25 24 0 351 0 351 -25 24 -24 25 -351 0 -351 0 -24 -25z m615 -375 l0 -240
-240 0 -240 0 0 240 0 240 240 0 240 0 0 -240z"/>
<path d="M1385 2375 c-16 -15 -25 -36 -25 -55 0 -19 9 -40 25 -55 l24 -25 831
0 831 0 24 25 c16 15 25 36 25 55 0 19 -9 40 -25 55 l-24 25 -831 0 -831 0
-24 -25z"/>
<path d="M1385 2055 c-16 -15 -25 -36 -25 -55 0 -19 9 -40 25 -55 l24 -25 831
0 831 0 24 25 c16 15 25 36 25 55 0 19 -9 40 -25 55 l-24 25 -831 0 -831 0
-24 -25z"/>
<path d="M1385 1735 c-16 -15 -25 -36 -25 -55 0 -19 9 -40 25 -55 l24 -25 351
0 351 0 24 25 c16 15 25 36 25 55 0 19 -9 40 -25 55 l-24 25 -351 0 -351 0
-24 -25z"/>
<path d="M2265 1735 c-16 -15 -25 -36 -25 -55 0 -19 9 -40 25 -55 21 -22 33
-25 95 -25 62 0 74 3 95 25 16 15 25 36 25 55 0 19 -9 40 -25 55 -21 22 -33
25 -95 25 -62 0 -74 -3 -95 -25z"/>
<path d="M425 1415 c-16 -15 -25 -36 -25 -55 0 -19 9 -40 25 -55 l24 -25 1311
0 1311 0 24 25 c33 32 33 78 0 110 l-24 25 -1311 0 -1311 0 -24 -25z"/>
<path d="M425 1095 c-16 -15 -25 -36 -25 -55 0 -19 9 -40 25 -55 l24 -25 1311
0 1311 0 24 25 c33 32 33 78 0 110 l-24 25 -1311 0 -1311 0 -24 -25z"/>
<path d="M425 775 c-16 -15 -25 -36 -25 -55 0 -19 9 -40 25 -55 l24 -25 831 0
831 0 24 25 c33 32 33 78 0 110 l-24 25 -831 0 -831 0 -24 -25z"/>
<path d="M2265 775 c-16 -15 -25 -36 -25 -55 0 -19 9 -40 25 -55 21 -22 33
-25 95 -25 62 0 74 3 95 25 16 15 25 36 25 55 0 19 -9 40 -25 55 -21 22 -33
25 -95 25 -62 0 -74 -3 -95 -25z"/>
<path d="M3945 5015 l-25 -24 0 -511 0 -511 25 -24 24 -25 511 0 511 0 24 25
c30 29 33 83 10 220 -72 441 -419 788 -860 860 -137 23 -191 20 -220 -10z
m290 -166 c22 -6 70 -24 108 -40 277 -117 479 -376 525 -671 l9 -58 -399 0
-398 0 0 398 0 399 58 -9 c31 -5 75 -14 97 -19z"/>
</g>
</svg>
