<svg id="_x31__px" height="512"  fill="#666" viewBox="0 0 24 24" width="512" xmlns="http://www.w3.org/2000/svg"><g><g><path d="m12 24c-.043 0-.085-.005-.127-.017-.099-.025-9.873-2.703-9.873-11.804v-8.179c0-.209.13-.397.327-.469l9.5-3.5c.111-.041.234-.041.346 0l9.5 3.5c.197.072.327.26.327.469v8.179c0 9.102-9.774 11.779-9.873 11.805-.042.011-.084.016-.127.016zm-9-19.651v7.83c0 7.882 7.85 10.466 9 10.802 1.15-.336 9-2.92 9-10.802v-7.83l-9-3.316z"/></g></g><g><path d="m15.5 14h-8c-.238 0-.443-.168-.49-.402l-1-5c-.03-.147.009-.299.103-.415.095-.116.237-.183.387-.183h9.859l.656-2.621c.066-.269.336-.432.606-.364.268.067.431.338.364.606l-2 8c-.056.223-.256.379-.485.379zm-7.59-1h7.2l1-4h-9z"/></g><g><g><path d="m9 17c-.552 0-1-.449-1-1s.448-1 1-1 1 .449 1 1-.448 1-1 1z"/></g></g><g><g><path d="m14 17c-.552 0-1-.449-1-1s.448-1 1-1 1 .449 1 1-.448 1-1 1z"/></g></g></svg>
