<?xml version="1.0" standalone="no"?>
<!DOCTYPE svg PUBLIC "-//W3C//DTD SVG 20010904//EN"
 "http://www.w3.org/TR/2001/REC-SVG-20010904/DTD/svg10.dtd">
<svg version="1.0" xmlns="http://www.w3.org/2000/svg"
 width="512.000000pt" height="512.000000pt" viewBox="0 0 512.000000 512.000000"
 preserveAspectRatio="xMidYMid meet">

<g transform="translate(0.000000,512.000000) scale(0.100000,-0.100000)"
fill="#fff" stroke="none">
<path d="M2420 5034 c-207 -26 -407 -101 -580 -217 -96 -64 -273 -241 -337
-337 -95 -142 -163 -302 -199 -470 -26 -119 -26 -381 0 -500 55 -257 169 -466
355 -651 185 -186 394 -300 651 -355 119 -26 381 -26 500 0 257 55 466 169
651 355 236 235 359 511 375 841 5 93 2 154 -10 238 -19 126 -51 242 -68 242
-10 0 -128 -40 -136 -46 -2 -1 6 -35 17 -76 70 -255 47 -530 -64 -765 -47
-100 -82 -155 -159 -251 l-51 -64 -6 209 c-6 225 -16 273 -82 386 -61 103
-187 200 -315 242 l-52 17 30 38 c40 50 77 134 90 200 16 82 12 296 -5 365
-67 256 -329 415 -580 350 -172 -45 -305 -179 -350 -352 -20 -77 -20 -309 0
-386 17 -68 54 -142 90 -185 l25 -30 -52 -17 c-84 -27 -171 -80 -232 -141 -65
-65 -99 -119 -134 -213 -23 -60 -26 -84 -31 -274 l-6 -209 -51 64 c-146 182
-223 355 -254 573 -65 457 180 922 599 1139 292 151 625 165 942 41 13 -5 23
6 42 48 45 98 49 90 -55 125 -51 18 -127 39 -168 48 -73 15 -320 27 -390 18z
m291 -435 c67 -36 97 -68 137 -143 26 -49 27 -56 27 -216 l0 -165 -34 -63
c-38 -70 -70 -101 -145 -140 -43 -22 -64 -26 -136 -26 -72 0 -93 4 -136 26
-75 39 -107 70 -145 140 l-34 63 0 165 c0 155 1 168 25 215 42 86 123 152 215
176 62 17 161 2 226 -32z m5 -951 c-7 -39 -31 -74 -70 -102 -39 -29 -133 -29
-172 0 -39 28 -63 63 -70 102 l-6 32 162 0 163 0 -7 -32z m-471 -15 c18 -103
84 -191 178 -240 45 -23 64 -27 137 -27 73 0 92 4 137 27 94 49 160 137 178
240 4 20 13 37 20 37 7 0 44 -16 82 -35 86 -43 144 -103 186 -193 31 -66 32
-71 35 -234 l4 -168 -81 0 -81 0 0 160 0 160 -80 0 -80 0 0 -160 0 -160 -320
0 -320 0 0 160 0 160 -80 0 -80 0 0 -160 0 -160 -81 0 -81 0 4 168 c3 163 4
168 35 234 42 90 100 150 186 193 38 19 75 35 82 35 7 0 16 -17 20 -37z m995
-758 c0 -9 -117 -83 -185 -117 -76 -38 -196 -79 -290 -100 -87 -18 -342 -15
-433 5 -144 33 -341 121 -428 193 l-29 23 683 1 c375 0 682 -2 682 -5z"/>
<path d="M3225 4935 l-25 -24 0 -296 0 -295 80 0 80 0 0 80 0 80 80 0 80 0 0
-80 0 -80 80 0 80 0 0 295 0 296 -25 24 c-24 25 -26 25 -215 25 -189 0 -191 0
-215 -25z m295 -215 l0 -80 -80 0 -80 0 0 80 0 80 80 0 80 0 0 -80z"/>
<path d="M1230 2634 c-14 -2 -56 -9 -95 -15 -58 -9 -223 -54 -233 -64 -2 -2
47 -134 54 -143 1 -2 33 6 70 18 397 122 829 15 1124 -280 333 -333 423 -838
225 -1257 -47 -100 -82 -155 -159 -251 l-51 -64 -6 209 c-6 225 -16 273 -82
386 -61 103 -187 200 -315 242 l-52 17 30 38 c40 50 77 134 90 200 16 82 12
296 -5 365 -67 256 -329 415 -580 350 -172 -45 -305 -179 -350 -352 -20 -77
-20 -309 0 -386 17 -68 54 -142 90 -185 l25 -30 -52 -17 c-84 -27 -171 -80
-232 -141 -65 -65 -99 -119 -134 -213 -23 -60 -26 -84 -31 -275 l-6 -209 -67
84 c-42 52 -91 130 -128 204 -146 294 -158 612 -35 927 6 14 -4 22 -48 42 -99
43 -90 47 -125 -56 -55 -160 -65 -226 -66 -413 -1 -188 13 -273 66 -425 67
-188 160 -335 307 -481 235 -236 511 -359 841 -375 349 -18 686 108 939 351
130 125 257 309 302 437 7 21 16 38 19 38 3 0 12 -17 19 -38 23 -65 100 -200
161 -280 254 -338 661 -529 1080 -508 330 16 606 139 841 375 236 235 359 511
375 841 5 93 2 154 -10 238 -19 126 -51 242 -68 242 -10 0 -128 -40 -136 -46
-2 -1 6 -35 17 -76 70 -255 47 -530 -64 -765 -47 -100 -82 -155 -159 -251
l-51 -64 -6 209 c-6 225 -16 273 -82 386 -61 103 -187 200 -315 242 l-52 17
30 38 c40 50 77 134 90 200 15 81 12 296 -5 363 -45 173 -178 307 -350 352
-251 65 -513 -94 -580 -350 -20 -79 -20 -310 0 -388 17 -68 54 -142 90 -185
l25 -30 -52 -17 c-84 -27 -171 -80 -232 -141 -65 -65 -99 -119 -134 -213 -23
-60 -26 -84 -31 -274 l-6 -209 -51 64 c-77 96 -112 151 -159 251 -199 420
-108 925 226 1257 323 322 787 415 1220 245 13 -5 23 6 42 48 45 98 49 90 -55
125 -160 55 -226 65 -413 66 -188 1 -272 -13 -425 -66 -314 -110 -599 -366
-735 -661 -19 -42 -35 -80 -35 -86 0 -24 -17 -9 -29 27 -23 65 -100 200 -161
280 -183 243 -449 415 -750 483 -81 19 -340 34 -400 23z m281 -435 c67 -36 97
-68 137 -143 26 -49 27 -56 27 -216 l0 -165 -34 -63 c-38 -70 -70 -101 -145
-140 -43 -22 -64 -26 -136 -26 -72 0 -93 4 -136 26 -75 39 -107 70 -145 140
l-34 63 0 165 c0 155 1 168 25 215 42 86 123 152 215 176 62 17 161 2 226 -32z
m2400 0 c67 -36 97 -68 137 -143 26 -49 27 -56 27 -216 l0 -165 -34 -63 c-38
-70 -70 -101 -145 -140 -43 -22 -64 -26 -136 -26 -72 0 -93 4 -136 26 -75 39
-107 70 -145 140 l-34 63 0 165 c0 155 1 168 25 215 42 86 123 152 215 176 62
17 161 2 226 -32z m-2395 -951 c-7 -39 -31 -74 -70 -102 -39 -29 -133 -29
-172 0 -39 28 -63 63 -70 102 l-6 32 162 0 163 0 -7 -32z m2400 0 c-7 -39 -31
-74 -70 -102 -39 -29 -133 -29 -172 0 -39 28 -63 63 -70 102 l-6 32 162 0 163
0 -7 -32z m-2871 -15 c18 -103 84 -191 178 -240 45 -23 64 -27 137 -27 73 0
92 4 137 27 94 49 160 137 178 240 4 20 13 37 20 37 7 0 44 -16 82 -35 86 -43
144 -103 186 -193 31 -66 32 -71 35 -234 l4 -168 -81 0 -81 0 0 160 0 160 -80
0 -80 0 0 -160 0 -160 -320 0 -320 0 0 160 0 160 -80 0 -80 0 0 -160 0 -160
-81 0 -81 0 4 168 c3 163 4 168 35 234 42 90 100 150 186 193 38 19 75 35 82
35 7 0 16 -17 20 -37z m2400 0 c18 -103 84 -191 178 -240 45 -23 64 -27 137
-27 73 0 92 4 137 27 94 49 160 137 178 240 4 20 13 37 20 37 7 0 44 -16 82
-35 86 -43 144 -103 186 -193 31 -66 32 -71 35 -234 l4 -168 -81 0 -81 0 0
160 0 160 -80 0 -80 0 0 -160 0 -160 -320 0 -320 0 0 160 0 160 -80 0 -80 0 0
-160 0 -160 -81 0 -81 0 4 168 c3 163 4 168 35 234 42 90 100 150 186 193 38
19 75 35 82 35 7 0 16 -17 20 -37z m-1405 -758 c0 -9 -117 -83 -185 -117 -76
-38 -196 -79 -290 -100 -87 -18 -342 -15 -433 5 -144 33 -341 121 -428 193
l-29 23 683 1 c375 0 682 -2 682 -5z m2400 0 c0 -9 -117 -83 -185 -117 -76
-38 -196 -79 -290 -100 -87 -18 -342 -15 -433 5 -144 33 -341 121 -428 193
l-29 23 683 1 c375 0 682 -2 682 -5z"/>
<path d="M345 2536 l-25 -25 0 -271 0 -271 25 -25 c26 -26 27 -26 174 -22 141
3 149 4 188 30 82 54 113 154 75 241 l-21 47 21 47 c38 87 7 187 -75 241 -39
26 -47 27 -188 30 -147 4 -148 4 -174 -22z m289 -158 c8 -13 8 -23 0 -35 -9
-14 -28 -19 -83 -21 l-71 -3 0 41 0 41 71 -3 c55 -2 74 -7 83 -20z m0 -240 c8
-13 8 -23 0 -35 -9 -14 -28 -19 -83 -21 l-71 -3 0 41 0 41 71 -3 c55 -2 74 -7
83 -20z"/>
<path d="M4425 2535 l-25 -24 0 -271 0 -271 25 -24 c24 -25 27 -25 200 -25
l175 0 0 80 0 80 -120 0 -120 0 0 160 0 160 120 0 120 0 0 80 0 80 -175 0
c-173 0 -176 0 -200 -25z"/>
</g>
</svg>
