<?xml version="1.0" encoding="iso-8859-1"?>
<!-- Generator: Adobe Illustrator 19.0.0, SVG Export Plug-In . SVG Version: 6.00 Build 0)  -->
<svg version="1.1" id="Layer_1" xmlns="http://www.w3.org/2000/svg" xmlns:xlink="http://www.w3.org/1999/xlink" x="0px" y="0px"
	 viewBox="0 0 512 512" style="enable-background:new 0 0 512 512;" xml:space="preserve">
<g>
	<g>
		<g>
			<path d="M202.667,42.667h-21.333c-5.896,0-10.667,4.771-10.667,10.667v405.333c0,5.896,4.771,10.667,10.667,10.667h21.333
				c5.896,0,10.667-4.771,10.667-10.667V53.333C213.333,47.438,208.563,42.667,202.667,42.667z"/>
			<path d="M144.656,157.344c-7.344-9.208-20.792-10.688-29.979-3.333L8.01,239.344C2.948,243.385,0,249.521,0,256
				s2.948,12.615,8.01,16.656l106.667,85.333c3.927,3.146,8.635,4.677,13.313,4.677c6.25,0,12.458-2.74,16.667-8.01
				c7.365-9.198,5.875-22.625-3.333-29.979L55.479,256l85.844-68.677C150.531,179.969,152.021,166.542,144.656,157.344z"/>
			<path d="M501.333,298.667H266.667c-5.896,0-10.667,4.771-10.667,10.667v21.333c0,5.896,4.771,10.667,10.667,10.667h234.667
				c5.896,0,10.667-4.771,10.667-10.667v-21.333C512,303.438,507.229,298.667,501.333,298.667z"/>
			<path d="M501.333,170.667H266.667c-5.896,0-10.667,4.771-10.667,10.667v21.333c0,5.896,4.771,10.667,10.667,10.667h234.667
				c5.896,0,10.667-4.771,10.667-10.667v-21.333C512,175.438,507.229,170.667,501.333,170.667z"/>
			<path d="M501.333,42.667H266.667c-5.896,0-10.667,4.771-10.667,10.667v21.333c0,5.896,4.771,10.667,10.667,10.667h234.667
				c5.896,0,10.667-4.771,10.667-10.667V53.333C512,47.438,507.229,42.667,501.333,42.667z"/>
			<path d="M501.333,426.667H266.667c-5.896,0-10.667,4.771-10.667,10.667v21.333c0,5.896,4.771,10.667,10.667,10.667h234.667
				c5.896,0,10.667-4.771,10.667-10.667v-21.333C512,431.438,507.229,426.667,501.333,426.667z"/>
		</g>
	</g>
</g>
<g>
</g>
<g>
</g>
<g>
</g>
<g>
</g>
<g>
</g>
<g>
</g>
<g>
</g>
<g>
</g>
<g>
</g>
<g>
</g>
<g>
</g>
<g>
</g>
<g>
</g>
<g>
</g>
<g>
</g>
</svg>
