<?xml version="1.0" standalone="no"?>
<!DOCTYPE svg PUBLIC "-//W3C//DTD SVG 20010904//EN"
 "http://www.w3.org/TR/2001/REC-SVG-20010904/DTD/svg10.dtd">
<svg version="1.0" xmlns="http://www.w3.org/2000/svg"
 width="512.000000pt" height="512.000000pt" viewBox="0 0 512.000000 512.000000"
 preserveAspectRatio="xMidYMid meet">

<g transform="translate(0.000000,512.000000) scale(0.100000,-0.100000)"
fill="#808080" stroke="none">
<path d="M2335 4965 c-333 -54 -615 -202 -851 -448 -196 -204 -325 -448 -386
-730 -17 -82 -22 -137 -22 -277 -1 -194 9 -263 70 -472 92 -323 337 -827 617
-1275 l74 -118 -304 -5 c-272 -4 -306 -7 -317 -22 -7 -9 -65 -333 -130 -720
-116 -699 -117 -702 -98 -728 l19 -25 386 -3 c376 -2 387 -2 407 18 29 29 26
74 -6 99 -26 20 -38 21 -345 21 -280 0 -319 2 -319 15 0 16 186 1142 195 1183
l5 22 299 0 299 0 130 -189 c149 -217 354 -498 424 -583 66 -79 90 -79 156 0
70 85 275 366 424 583 l130 189 299 0 299 0 5 -22 c9 -40 195 -1167 195 -1182
0 -13 -32 -15 -206 -18 -202 -3 -206 -3 -225 -27 -24 -30 -24 -52 2 -85 l21
-26 265 2 266 3 19 25 c19 26 18 29 -98 728 -65 387 -123 711 -130 720 -11 15
-45 18 -317 22 l-304 5 60 95 c278 438 536 969 631 1297 61 210 71 279 70 473
-1 262 -43 433 -165 670 -77 149 -162 262 -291 385 -204 197 -448 326 -726
386 -129 27 -399 35 -527 14z m446 -141 c553 -94 983 -509 1105 -1065 24 -112
29 -334 10 -450 -56 -344 -269 -831 -604 -1384 -219 -361 -702 -1060 -732
-1060 -18 0 -278 361 -490 681 -487 734 -776 1337 -846 1763 -31 189 -7 442
61 631 166 460 569 800 1050 884 111 20 330 20 446 0z"/>
<path d="M2435 4489 c-155 -21 -316 -82 -446 -169 -90 -61 -226 -201 -283
-292 -96 -155 -143 -306 -153 -489 -12 -228 42 -426 169 -619 54 -83 184 -214
267 -270 302 -203 685 -231 1008 -75 269 130 460 361 541 653 24 87 27 114 27
257 0 179 -16 260 -80 408 -68 157 -213 332 -353 426 -202 136 -470 201 -697
170z m340 -159 c162 -41 296 -121 416 -247 160 -168 239 -366 239 -599 0 -227
-80 -430 -234 -591 -121 -128 -257 -210 -421 -254 -112 -30 -317 -31 -427 -1
-393 106 -658 447 -658 846 0 429 295 780 723 862 95 18 259 11 362 -16z"/>
<path d="M2197 260 c-33 -26 -36 -71 -7 -100 18 -18 33 -20 149 -20 128 0 130
0 150 26 26 33 26 55 2 85 -18 23 -27 24 -143 27 -114 3 -125 2 -151 -18z"/>
<path d="M2895 268 c-28 -16 -35 -28 -35 -65 0 -54 25 -63 171 -63 107 0 128
3 141 18 35 41 27 90 -19 111 -31 14 -232 14 -258 -1z"/>
</g>
</svg>
