<?xml version="1.0" standalone="no"?>
<!DOCTYPE svg PUBLIC "-//W3C//DTD SVG 20010904//EN"
 "http://www.w3.org/TR/2001/REC-SVG-20010904/DTD/svg10.dtd">
<svg version="1.0" xmlns="http://www.w3.org/2000/svg"
 width="512.000000pt" height="512.000000pt" viewBox="0 0 512.000000 512.000000"
 preserveAspectRatio="xMidYMid meet">

<g transform="translate(0.000000,512.000000) scale(0.100000,-0.100000)"
fill="#808080" stroke="none">
<path d="M2445 4948 c-27 -5 -86 -27 -131 -48 -111 -54 -200 -142 -253 -253
-50 -104 -61 -166 -61 -344 l0 -143 -175 0 c-173 0 -176 0 -200 -25 l-25 -24
0 -912 c0 -687 3 -922 12 -953 16 -55 99 -138 154 -154 30 -9 186 -12 578 -12
l536 0 0 80 0 80 -535 0 -536 0 -24 25 c-21 20 -25 34 -25 80 l0 55 560 0 560
0 0 80 0 80 -560 0 -560 0 0 720 0 720 120 0 120 0 0 -120 0 -120 80 0 80 0 0
120 0 120 400 0 400 0 0 -120 0 -120 80 0 80 0 0 120 0 120 120 0 120 0 0
-120 0 -120 80 0 80 0 0 175 c0 173 0 176 -25 200 -24 25 -27 25 -200 25
l-175 0 0 143 c0 178 -11 240 -61 344 -108 226 -359 349 -614 301z m279 -186
c91 -42 149 -100 194 -190 l37 -76 4 -168 3 -168 -402 0 -402 0 4 168 c3 163
4 168 35 234 40 85 97 147 172 186 78 42 122 52 213 48 61 -3 92 -11 142 -34z"/>
<path d="M3065 3575 l-25 -24 0 -632 c0 -467 3 -642 12 -673 16 -55 99 -138
154 -154 59 -17 1209 -17 1268 0 55 16 138 99 154 154 9 31 12 206 12 673 l0
632 -25 24 -24 25 -751 0 -751 0 -24 -25z m1415 -575 l0 -440 -640 0 -640 0 0
440 0 440 640 0 640 0 0 -440z m0 -655 c0 -46 -4 -60 -25 -80 l-24 -25 -591 0
-591 0 -24 25 c-21 20 -25 34 -25 80 l0 55 640 0 640 0 0 -55z"/>
<path d="M3442 3151 c4 -124 5 -131 41 -203 44 -91 102 -147 195 -191 61 -29
76 -32 163 -32 90 0 99 2 171 37 91 45 148 103 191 196 29 62 32 77 35 195 l4
127 -81 0 -81 0 0 -96 c0 -53 -5 -115 -12 -138 -16 -55 -99 -138 -154 -154
-94 -28 -169 -8 -239 63 -62 61 -75 101 -75 229 l0 96 -81 0 -81 0 4 -129z"/>
<path d="M2313 1879 c-111 -10 -231 -42 -383 -99 -140 -53 -205 -84 -296 -141
-34 -22 -64 -39 -66 -39 -3 0 -9 11 -12 25 -10 38 -42 65 -77 65 -42 0 -939
-326 -963 -350 -10 -10 -19 -32 -20 -49 -1 -17 -8 -33 -16 -37 -8 -3 -89 -33
-179 -65 -90 -33 -167 -62 -171 -64 -4 -3 4 -36 18 -75 17 -48 30 -70 41 -69
9 0 93 29 186 63 94 35 173 61 176 57 4 -3 78 -202 165 -441 87 -239 159 -437
161 -440 2 -2 36 7 76 21 50 17 71 29 69 39 -2 8 -80 226 -174 484 -93 257
-166 472 -161 476 13 12 735 271 740 266 3 -3 97 -256 208 -563 l203 -558 -91
-33 c-50 -18 -93 -35 -95 -37 -7 -7 43 -137 54 -142 18 -7 268 90 291 113 27
27 29 57 7 109 -8 21 -12 41 -7 45 4 4 69 29 143 54 202 69 250 73 576 51 295
-19 397 -16 517 15 78 20 1566 558 1618 585 53 28 116 101 138 161 25 67 27
162 5 227 -21 61 -93 141 -158 175 -44 23 -63 27 -141 27 l-90 0 -345 -127
c-190 -69 -357 -131 -371 -137 -26 -9 -28 -7 -59 55 -38 77 -105 135 -183 159
-68 20 -988 182 -1109 195 -103 11 -108 11 -225 -1z m775 -253 c551 -97 549
-97 596 -160 16 -20 21 -42 21 -85 0 -73 -33 -121 -99 -146 l-45 -17 -438 77
c-241 42 -445 77 -453 78 -11 2 -19 -17 -29 -71 -7 -40 -11 -75 -8 -78 3 -3
207 -41 454 -85 489 -87 506 -88 600 -43 59 29 136 108 153 159 7 22 20 37 38
43 15 5 195 71 401 146 254 93 387 136 415 136 49 0 108 -33 136 -76 41 -61
18 -168 -44 -209 -28 -19 -1477 -548 -1581 -578 -89 -25 -255 -27 -562 -8
-203 13 -230 13 -325 -2 -82 -14 -272 -71 -369 -111 -13 -6 -43 69 -168 413
-84 231 -150 425 -146 431 3 5 32 27 63 49 157 106 437 210 621 231 127 14
225 2 769 -94z"/>
</g>
</svg>
