<?xml version="1.0" standalone="no"?>
<!DOCTYPE svg PUBLIC "-//W3C//DTD SVG 20010904//EN"
 "http://www.w3.org/TR/2001/REC-SVG-20010904/DTD/svg10.dtd">
<svg version="1.0" xmlns="http://www.w3.org/2000/svg"
 width="512.000000pt" height="512.000000pt" viewBox="0 0 512.000000 512.000000"
 preserveAspectRatio="xMidYMid meet">

<g transform="translate(0.000000,512.000000) scale(0.100000,-0.100000)"
fill="#fff" stroke="none">
<path d="M2375 5096 c-60 -28 -87 -56 -114 -116 -35 -78 -21 -192 32 -248 32
-35 91 -62 150 -69 l51 -6 -224 -218 -225 -217 -140 73 c-162 84 -200 94 -282
70 -58 -17 -62 -21 -688 -652 -346 -349 -640 -652 -653 -673 -13 -22 -26 -63
-29 -92 -10 -96 52 -196 144 -235 48 -19 133 -19 174 2 19 9 289 271 600 582
l566 565 143 -73 c131 -68 148 -74 204 -74 41 0 74 7 101 20 22 11 174 150
345 314 225 217 306 289 308 275 25 -187 92 -266 225 -267 99 -1 178 49 218
138 17 36 19 73 19 396 l0 355 -27 55 c-21 40 -40 61 -77 84 l-49 30 -361 3
-361 2 -50 -24z m759 -151 c13 -17 15 -72 16 -352 l0 -332 -23 -27 c-17 -20
-33 -27 -57 -27 -24 0 -40 7 -57 27 -22 26 -23 35 -23 170 0 126 -2 147 -19
167 -13 16 -29 23 -55 23 -31 0 -46 -9 -104 -66 -402 -391 -688 -659 -711
-665 -21 -5 -59 11 -193 80 -92 48 -179 87 -193 87 -21 0 -137 -112 -612 -590
-547 -551 -588 -590 -620 -590 -63 0 -101 62 -70 117 7 12 290 301 631 642
402 404 625 621 638 621 11 0 95 -38 187 -85 92 -47 179 -85 195 -85 28 0 85
53 574 526 122 118 125 122 119 155 -12 62 -32 69 -184 69 -129 0 -135 1 -158
25 -27 26 -32 70 -12 96 29 37 44 39 384 36 319 -2 333 -3 347 -22z"/>
<path d="M3693 4546 c-91 -29 -166 -97 -210 -191 l-28 -60 -3 -1176 -3 -1176
-56 -12 c-31 -6 -60 -11 -64 -11 -5 0 -10 370 -11 823 l-3 822 -23 56 c-32 80
-90 142 -170 181 -66 33 -68 33 -212 33 -137 0 -148 -2 -203 -27 -76 -36 -149
-112 -178 -185 -23 -57 -23 -68 -27 -475 l-4 -416 -58 -31 c-32 -17 -60 -31
-63 -31 -2 0 -6 71 -9 158 -4 143 -6 162 -30 212 -30 66 -84 121 -147 152 -43
21 -59 23 -231 23 -181 0 -186 -1 -235 -27 -65 -34 -108 -80 -139 -148 l-26
-55 0 -375 0 -375 -124 -67 c-117 -62 -144 -72 -468 -163 -399 -113 -481 -147
-558 -232 -55 -60 -101 -149 -120 -232 -18 -76 -6 -168 44 -361 46 -173 61
-200 113 -200 27 0 73 41 73 65 0 9 -21 96 -46 193 -38 147 -45 187 -40 237 9
106 65 200 150 250 36 21 704 222 710 213 2 -2 112 -295 246 -652 l242 -650
-4 -66 c-9 -120 -82 -231 -186 -281 -69 -34 -504 -131 -592 -133 -90 -1 -163
28 -223 90 -54 56 -70 95 -127 319 -42 163 -56 204 -76 223 -42 37 -105 21
-118 -31 -8 -32 96 -423 133 -503 33 -71 115 -157 188 -197 56 -30 158 -57
219 -57 103 0 586 111 683 158 78 37 170 132 208 212 37 78 45 120 45 223 -1
42 2 77 5 77 17 0 1650 404 1703 421 83 27 170 71 245 123 33 23 249 198 480
388 446 368 474 396 501 500 19 72 17 118 -6 189 -27 79 -58 126 -115 177
-107 94 -253 108 -398 38 -42 -20 -78 -36 -81 -36 -3 0 -6 283 -6 629 l0 630
-26 20 c-35 27 -57 26 -91 -3 l-28 -24 -3 -686 -3 -686 -97 -73 c-181 -137
-379 -267 -407 -267 -3 0 -4 510 -3 1133 3 1031 4 1135 20 1162 44 80 102 105
240 105 122 0 170 -17 214 -76 29 -37 29 -40 35 -202 5 -157 6 -166 28 -183
28 -23 69 -24 99 -3 21 15 22 21 22 179 0 140 -3 172 -20 218 -36 95 -119 172
-219 203 -59 18 -270 18 -328 0z m-612 -891 c23 -17 52 -48 63 -70 21 -39 21
-51 24 -852 l3 -813 -251 0 c-137 0 -250 4 -250 8 0 5 41 42 91 82 50 40 113
98 140 129 58 64 130 205 154 301 42 164 -22 309 -164 373 -48 22 -151 29
-203 14 l-28 -7 0 365 c0 345 1 368 20 405 21 41 63 76 108 91 15 4 77 7 139
6 106 -2 113 -4 154 -32z m-941 -607 c72 -50 75 -58 78 -271 l3 -192 -249
-132 c-138 -73 -253 -133 -256 -133 -3 0 -6 146 -6 324 0 319 0 323 23 357 39
59 73 69 233 69 130 0 144 -2 174 -22z m690 -374 c78 -31 104 -103 75 -207
-40 -142 -99 -227 -235 -337 -119 -97 -140 -125 -140 -196 0 -59 26 -105 79
-141 34 -23 36 -23 396 -23 353 0 365 1 461 25 151 38 249 93 599 341 176 124
337 234 357 245 83 43 202 14 257 -62 74 -101 60 -200 -41 -295 -37 -35 -681
-565 -808 -665 -61 -48 -127 -85 -205 -114 -86 -33 -1738 -436 -1747 -427 -4
4 -104 268 -223 587 -119 319 -218 582 -220 585 -2 3 233 132 522 286 740 393
782 414 809 414 13 0 42 -7 64 -16z"/>
<path d="M1121 919 c-218 -43 -306 -328 -151 -488 55 -56 112 -83 191 -89 158
-11 289 95 315 255 22 138 -82 286 -225 320 -62 14 -68 14 -130 2z m124 -159
c105 -51 111 -189 12 -251 -45 -28 -127 -22 -163 12 -41 38 -57 77 -51 126 6
57 30 91 80 114 53 24 71 24 122 -1z"/>
</g>
</svg>
