<svg xmlns="http://www.w3.org/2000/svg" width="1084" height="1333.333" version="1.0" viewBox="0 0 813 1000" fill="#fff"><path d="M720 393.1c-12.3 2.4-23.6 9.3-37 22.8-12 12-21.2 25.7-32.9 49.1-19.1 38.2-27.7 79.2-24.2 114.5 4.7 45.8 31.5 64.6 72.1 50.3 22.1-7.8 40-20.4 60.2-42.4 8.9-9.8 10.6-13.9 8.7-21.8-1.7-7.4-7.2-19-10-20.9-4.7-3.4-6.6-2.4-18.8 10.1-13.1 13.3-22.4 20.6-32.6 25.6-15.5 7.6-25.7 6.7-31.8-2.6-5.2-8-5.4-19.8-.6-35.3 2.2-7.2 2.8-7.7 11.3-8.9 17.7-2.6 43.8-16.6 58.1-31 10.8-10.9 22.8-31.3 27.8-47.3 10.3-32.5.5-55.4-26.5-61.8-6.9-1.6-16.7-1.8-23.8-.4m11.3 41.9c5.8 4.6 5.9 13.4.1 24.9-7.4 14.8-24.2 28.4-41.3 33.5-3 .9-5.6 1.4-5.9 1.2-.6-.7 3.7-13.2 7.4-21.4 7.4-16.3 19.9-33.5 27.9-38.4 3.9-2.4 8.6-2.3 11.8.2"/><path d="M571.8 414.5c-3.2.8-7.7 2.4-10 3.6-5.7 2.9-17.8 14.7-24 23.4l-5.1 7 .7-4.5c.3-2.5.9-6.2 1.2-8.2.6-3.2.3-4.1-2.3-6.6-4.9-4.9-21.4-8.7-27.3-6.2-5 2.1-6.6 5.6-10.3 22.5-3.5 15.7-14.2 71-19.2 99.5-4 22.7-7.5 38.9-9.2 43.1-2.6 6.6-14.5 14.9-21.2 14.9-4.5 0-5.5-2.8-5.4-15 0-16.2 2.3-28.3 18.4-99.7 8.6-38.3 9.3-43.9 5.6-49.4-4.1-6.3-16.4-10.3-26-8.5-4.7.9-8.4 4.9-10.2 11-2.4 8-2.6 8.2-7 4.1-5.1-4.6-13.2-7.6-22.5-8.2-9.2-.7-17 .9-25.2 5-8.8 4.3-26.6 22.1-34.8 34.7-17.4 26.6-30.5 62.2-35.4 96-7 47.8 1.7 81.2 23.7 91.9 12.5 6.1 27.1 6.2 39.6.4 7.7-3.6 18.6-14.9 24.7-25.4l4.8-8.4.8 4.1c1.4 6.6 6.7 14.4 12.2 17.8 9.6 6 25 4 39.8-5.1 3.9-2.4 7.3-4.1 7.6-3.8.6.6-4.9 31.1-7.2 40-1 4.2-1.7 5-4.2 5.6-1.6.5-24.3 4-50.4 7.8-66.5 9.9-116 18.3-142.4 24.2-4.9 1.1-9.1 1.7-9.4 1.4s1.9-9.4 5-20.3c3.1-10.8 17.2-60.7 31.3-110.7 35.7-126 35.7-125.8 35.9-133.8.1-6.3-.1-7-2.7-9.2-5.4-4.7-16-4.3-27.4 1.1-7 3.4-19 14.9-22.3 21.4-1.3 2.5-7.1 19.1-13 37-26 78.7-39.2 104.7-59.4 116.5-13.5 7.9-23.1-.7-21.1-19.3.9-9.3 7.1-32.9 15-57.2 12.6-39.2 13.8-47.1 8.8-57.1-3.7-7.2-9.8-11.3-19.2-12.9-7.7-1.3-12.5-.4-15.4 2.8-2.2 2.5-3.6 9.5-3.7 18.3 0 11.2-1.5 17.6-8.5 35.9-20.2 53.3-29.3 94.8-25.6 116.5 3.3 19.1 16.1 32.1 32.9 33.3 16.5 1.1 33.6-7.8 51.9-27.2l8.1-8.6-6.4 19.3c-3.5 10.5-9.6 29.3-13.5 41.7-8.5 26.9-8.4 26.8-23.9 32.4-13 4.8-20.9 8.7-37 18.4-16.6 9.9-32.4 21.3-43.7 31.4-9.8 8.8-27.3 27.8-34 36.9-9.8 13.3-20.9 35.1-26.7 52.3-9.4 28.1-8.6 52.5 2.2 69.2 6.9 10.6 14.8 17.1 25.9 21.1 18.7 6.8 41.4 2.6 63-11.6 7.3-4.9 11.7-9 25.3-24.1 18.8-20.8 23.4-26.8 33.2-43.2 13.3-22.6 25.6-50.7 38.3-87.9 3.6-10.7 7.2-20.4 8-21.5 1.6-2.5 7.9-4.4 37.1-10.8 54.6-12.2 150.3-30.4 173-32.9l4.1-.5-.1 9.7c-.1 7.9.3 10.3 2 13.5 4.5 8.8 12.9 10.7 22 5.1 7.2-4.5 12.1-13.4 16.3-30.1l1.1-4.1 8.8-1.2c24.1-3.1 63.5-8.4 86.7-11.5 14.3-1.9 39.1-4.9 55.1-6.6 47.9-4.9 73.1-8.8 82-12.5 1.7-.7 4.4-3 6-5.1 2.6-3.4 2.9-4.5 2.9-11.4 0-6.8-.3-8.2-3-12.5-8.2-13.2-23.7-14-103.3-5-22.4 2.5-60 7.2-83.7 10.3-33.5 4.5-43.1 5.5-43.3 4.5-.5-1.7 6.8-53.2 7.9-56 .8-2.1.9-2.1 4.2 1.1 21.5 20.2 53 20.5 72.8.7 13.7-13.8 26.3-36.7 35.4-64.3 9.2-28.1 13.1-49.5 14.2-76.8 1.8-48.7-10.3-73.1-37-74.6-4.3-.2-9.5.2-12.9 1.1m.8 48.6c3.1 2.9 6.1 10.3 7.4 18.5 2.5 15-2.3 41.8-13 72.8-9.2 26.5-19.3 40.1-34 45.7-8.8 3.3-19.1 1.9-24.8-3.5-1.7-1.7.1-11.7 8.2-44.2 12-48.4 19.5-67 32.5-81.6 8.9-9.9 18.2-12.9 23.7-7.7m-162.2 15.3c7.3 3 8.2 9 4.2 26.7-5.3 23.4-20.5 70.2-27.5 85-8.7 18.3-17.7 26.5-26.2 24-24.4-7.3-21.8-65.4 4.9-107.1 4.3-6.7 15.1-18.1 21.2-22.3 4.6-3.2 15-7.6 18.3-7.6 1-.1 3.3.5 5.1 1.3M165.5 802.2c-2.1 10-23.2 54.8-34.8 74-9.4 15.5-16.7 25-28.1 36.4C92.3 922.8 82.8 929 77.3 929c-13.7 0-15.2-20.4-3.2-44.1 8.6-17.1 24.5-38.2 38.4-51 15.3-14 25.8-21.5 41.9-30 11-5.9 12-6 11.1-1.7"/></svg>